<?xml version="1.0" standalone="no"?>
<!DOCTYPE svg PUBLIC "-//W3C//DTD SVG 1.1//EN" "http://www.w3.org/Graphics/SVG/1.1/DTD/svg11.dtd" >
<svg xmlns="http://www.w3.org/2000/svg">
<metadata>
Copyright (c) 2011 by Fontsmith Ltd. All rights reserved.
</metadata>
<defs>
<font id="JaguarWeb" horiz-adv-x="881" >
  <font-face 
    font-family="Jaguar Web"
    font-weight="400"
    font-stretch="normal"
    units-per-em="1000"
    panose-1="2 0 5 7 5 0 0 2 0 3"
    ascent="741"
    descent="-259"
    x-height="453"
    cap-height="726"
    bbox="-276 -336 1889 1193"
    underline-thickness="50"
    underline-position="-50"
    unicode-range="U+000D-FB02"
  />
<missing-glyph horiz-adv-x="662" 
d="M64 706h504v-706h-504v706zM488 656h-344l173 -258zM518 96v514l-172 -257zM488 51l-171 256l-173 -256h344zM115 96l171 257l-171 257v-514z" />
    <glyph glyph-name="fi" unicode="fi" horiz-adv-x="851" 
d="M740 0h-130v355h-401v-355h-130v522q0 51 12.5 86.5t38.5 60.5q30 29 77 43t119 14h354v-102h-325q-43 0 -73 -7t-47 -23q-26 -26 -26 -87v-54h531v-453z" />
    <glyph glyph-name="fl" unicode="fl" horiz-adv-x="892" 
d="M781 0h-130v624h-296q-43 0 -73 -7t-47 -23q-26 -26 -26 -87v-54h319v-98h-319v-355h-130v522q0 51 12.5 86.5t38.5 60.5q30 29 77 43t119 14h455v-726z" />
    <glyph glyph-name=".notdef" horiz-adv-x="662" 
d="M64 706h504v-706h-504v706zM488 656h-344l173 -258zM518 96v514l-172 -257zM488 51l-171 256l-173 -256h344zM115 96l171 257l-171 257v-514z" />
    <glyph glyph-name=".null" horiz-adv-x="30" 
 />
    <glyph glyph-name=".null" horiz-adv-x="30" 
 />
    <glyph glyph-name="nonmarkingreturn" unicode="&#xd;" horiz-adv-x="30" 
 />
    <glyph glyph-name="space" unicode=" " horiz-adv-x="370" 
 />
    <glyph glyph-name="exclam" unicode="!" horiz-adv-x="341" 
d="M210 246h-108l-16 480h139zM150 -6q-32 0 -53 17t-21 55v5q0 38 21 55t53 17h11q31 0 52.5 -17t21.5 -55v-5q0 -38 -21.5 -55t-52.5 -17h-11z" />
    <glyph glyph-name="quotedbl" unicode="&#x22;" horiz-adv-x="618" 
d="M196 411h-94l-20 385h132zM488 411h-94l-20 385h132z" />
    <glyph glyph-name="numbersign" unicode="#" horiz-adv-x="1176" 
d="M755 193l-62 -193h-108l62 193h-283l-62 -193h-108l62 193h-236l29 93h234l50 161h-242l32 93h238l59 186h108l-59 -186h283l59 186h108l-59 -186h266l-32 -93h-262l-50 -161h270l-29 -93h-268zM391 286h283l50 161h-283z" />
    <glyph glyph-name="dollar" unicode="$" horiz-adv-x="1115" 
d="M594 0v-198h-102v198h-376v104h376v210l-141 15q-63 6 -113.5 19.5t-86.5 37t-55 58.5t-19 85q0 55 23.5 93t66.5 61t103 33t133 10h89v189h102v-189h369v-104h-369v-206l143 -14q67 -7 118 -20.5t85 -37t51 -58.5t17 -85q0 -56 -22.5 -94t-66 -62t-108 -34.5
t-148.5 -10.5h-69zM594 304v-200h55q52 0 93.5 2.5t69.5 12t43 28.5t15 51q0 27 -11 43.5t-32 26.5t-52 15.5t-71 9.5zM215 532q0 -27 12 -43.5t34 -26.5t52.5 -15t67.5 -9l111 -11v195h-78q-57 0 -95 -4t-61 -14.5t-33 -28t-10 -43.5z" />
    <glyph glyph-name="percent" unicode="%" horiz-adv-x="1363" 
d="M319 453q29 0 55.5 4.5t46.5 16t32 30.5t12 49q0 60 -39.5 81t-106.5 21h-16q-70 0 -109.5 -21t-39.5 -81q0 -30 10 -49t29 -30.5t46.5 -16t61.5 -4.5h18zM334 738q49 0 93 -9.5t76.5 -31t51.5 -57t19 -87.5q0 -51 -19 -86t-51.5 -56.5t-76.5 -31t-94 -9.5h-46
q-54 0 -98.5 9.5t-76.5 31t-49.5 56.5t-17.5 86q0 52 17.5 87.5t49.5 57t76.5 31t98.5 9.5h47zM1033 71q29 0 55.5 4.5t46.5 16t32 30.5t12 49q0 60 -39.5 81t-106.5 21h-16q-70 0 -109.5 -21t-39.5 -81q0 -30 10 -49t29 -30.5t46.5 -16t61.5 -4.5h18zM1048 356
q49 0 93 -9.5t76.5 -31t51.5 -57t19 -87.5q0 -51 -19 -86t-51.5 -56.5t-76.5 -31t-94 -9.5h-46q-54 0 -98.5 9.5t-76.5 31t-49.5 56.5t-17.5 86q0 52 17.5 87.5t49.5 57t76.5 31t98.5 9.5h47zM371 -12h-136l721 751h136z" />
    <glyph glyph-name="ampersand" unicode="&#x26;" horiz-adv-x="1229" 
d="M1000 422h172v-103h-172v-319h-633q-80 0 -132 14t-88 42q-37 28 -54.5 67t-17.5 81q0 31 9.5 58t26 49.5t39 39.5t47.5 26q-42 21 -73 61t-31 104q0 61 32 102.5t87 61.5q30 11 65 15.5t78 4.5h397v-105h-393q-31 0 -47 -4t-30 -12q-17 -9 -29.5 -29t-12.5 -50
q0 -47 27.5 -75.5t84.5 -28.5h518v155h130v-155zM333 319q-57 0 -90 -27t-33 -82q0 -53 31.5 -79t90.5 -26h538v214h-537z" />
    <glyph glyph-name="quotesingle" unicode="'" horiz-adv-x="326" 
d="M196 411h-94l-20 385h132z" />
    <glyph glyph-name="parenleft" unicode="(" horiz-adv-x="582" 
d="M120 620q0 35 2.5 61.5t8.5 46.5t16 35t24 29q26 26 65.5 36t96.5 10h134v-109h-148q-25 0 -39.5 -4.5t-24.5 -15.5q-8 -10 -11 -24.5t-3 -38.5v-628q0 -24 3 -38.5t11 -24.5q10 -11 24.5 -15.5t39.5 -4.5h148v-109h-134q-57 0 -96.5 10t-65.5 36q-14 13 -24 28.5
t-16 35.5t-8.5 46.5t-2.5 61.5v576z" />
    <glyph glyph-name="parenright" unicode=")" horiz-adv-x="582" 
d="M432 44q0 -35 -2.5 -61.5t-8.5 -46.5t-16 -35.5t-24 -28.5q-26 -26 -65.5 -36t-96.5 -10h-134v109h148q25 0 39.5 4.5t24.5 15.5q8 10 11 24.5t3 38.5v628q0 24 -3 38.5t-11 24.5q-10 11 -24.5 15.5t-39.5 4.5h-148v109h134q57 0 96.5 -10t65.5 -36q14 -14 24 -29t16 -35
t8.5 -46.5t2.5 -61.5v-576z" />
    <glyph glyph-name="asterisk" unicode="*" horiz-adv-x="589" 
d="M338 394h-117l26 131l-118 -90l-58 88l147 62l-148 57l62 89l114 -87l-25 132h117l-25 -132l114 87l62 -89l-148 -57l147 -62l-58 -88l-118 90z" />
    <glyph glyph-name="plus" unicode="+" horiz-adv-x="830" 
d="M61 337h278v236h123v-236h278v-104h-278v-233h-123v233h-278v104z" />
    <glyph glyph-name="comma" unicode="," horiz-adv-x="370" 
d="M166 147q38 0 63.5 -20.5t25.5 -61.5v-5q0 -21 -7 -44t-28 -63l-78 -151h-80l79 179q-29 4 -49.5 24.5t-20.5 55.5v6q0 22 7.5 37t19.5 24.5t27.5 14t32.5 4.5h8z" />
    <glyph glyph-name="hyphen" unicode="-" horiz-adv-x="579" 
d="M80 279h389v-102h-389v102z" />
    <glyph glyph-name="period" unicode="." horiz-adv-x="305" 
d="M143 147q32 0 54 -18t22 -56v-5q0 -39 -22 -56.5t-54 -17.5h-11q-33 0 -54.5 17.5t-21.5 56.5v5q0 38 21.5 56t54.5 18h11z" />
    <glyph glyph-name="slash" unicode="/" horiz-adv-x="781" 
d="M187 -40h-131l508 792h131z" />
    <glyph glyph-name="zero" unicode="0" horiz-adv-x="1198" 
d="M74 363q0 88 25 156t73 114q31 30 68.5 50t86.5 32.5t112 17.5t145 5t145 -5t112 -17.5t86.5 -32.5t68.5 -50q48 -46 73 -114t25 -156t-25 -156t-73 -114q-31 -30 -68.5 -50t-86.5 -32.5t-112 -17.5t-145 -5t-145 5t-112 17.5t-86.5 32.5t-68.5 50q-48 46 -73 114
t-25 156zM949 363q0 57 -11.5 107t-45.5 85q-42 43 -116 56t-180 13h-24q-106 0 -180 -13t-116 -56q-34 -35 -45.5 -85t-11.5 -107t11.5 -107t45.5 -85q42 -43 116 -56t180 -13h24q106 0 180 13t116 56q34 35 45.5 85t11.5 107z" />
    <glyph glyph-name="one" unicode="1" horiz-adv-x="595" 
d="M408 0h-136v620h-225v106h361v-726z" />
    <glyph glyph-name="two" unicode="2" horiz-adv-x="1006" 
d="M896 0h-826v85l337 174q92 48 153.5 84t99 66.5t53.5 59t16 61.5q0 52 -36 73q-16 10 -39 13.5t-53 3.5h-521v106h518q81 0 127 -10t79 -32q35 -23 52.5 -60.5t17.5 -77.5q0 -51 -19 -95t-63 -86t-117.5 -85.5t-181.5 -95.5l-163 -78h566v-106z" />
    <glyph glyph-name="three" unicode="3" horiz-adv-x="1034" 
d="M70 0v106h510q59 0 98.5 7t63 21t33.5 36t10 52q0 36 -12 59t-39.5 35.5t-71.5 17.5t-108 5h-199v71l317 210h-602v106h800v-94l-296 -193h41q162 0 238 -53.5t76 -158.5q0 -60 -22.5 -103t-65.5 -70.5t-106.5 -40.5t-144.5 -13h-520z" />
    <glyph glyph-name="four" unicode="4" horiz-adv-x="1166" 
d="M893 0h-137v173h-670v99l443 454h161l-447 -448h513v190h137v-190h190v-105h-190v-173z" />
    <glyph glyph-name="five" unicode="5" horiz-adv-x="1076" 
d="M118 0v106h483q72 0 117 7t70 22t34 37t9 52q0 33 -7.5 54.5t-29 34t-60 17.5t-100.5 5h-512v391h810v-106h-686v-180h414q86 0 140.5 -8.5t92.5 -30.5q45 -26 64 -71.5t19 -108.5t-23 -105.5t-65 -68t-101 -36.5t-131 -11h-538z" />
    <glyph glyph-name="six" unicode="6" horiz-adv-x="1118" 
d="M667 445q82 0 147 -6t110.5 -27t69.5 -61.5t24 -109.5q0 -65 -25 -112.5t-79.5 -79t-142 -46.5t-212.5 -15q-134 0 -226.5 23t-150.5 70.5t-84 119t-26 169.5q0 112 40.5 190t111.5 119q45 26 100 36.5t129 10.5h501v-106h-497q-119 0 -178 -43.5t-66 -131.5h454zM563 94
q99 0 159.5 10t94 28.5t45 45t11.5 59.5q0 35 -11.5 56t-41 32.5t-78.5 15t-124 3.5h-409q0 -65 17 -112t58 -77.5t109 -45.5t170 -15z" />
    <glyph glyph-name="seven" unicode="7" horiz-adv-x="954" 
d="M398 0h-161l469 620h-671v106h837v-90z" />
    <glyph glyph-name="eight" unicode="8" horiz-adv-x="1148" 
d="M849 389q105 -23 152 -68.5t47 -116.5q0 -46 -20.5 -80t-55.5 -58t-82.5 -39t-101 -24t-110.5 -12t-112 -3h-20q-109 0 -197 10t-150 34.5t-95.5 67t-33.5 107.5q0 79 50.5 127t136.5 65q-78 19 -115.5 59.5t-37.5 100.5q0 52 30.5 86.5t88 55t139.5 29t186 8.5h17
q107 0 191.5 -9t143 -30t89 -56t30.5 -87q0 -55 -40 -98.5t-130 -68.5zM699 419q93 22 134 54.5t41 74.5q0 28 -19 45t-57.5 26.5t-96 12.5t-135.5 3h-17q-83 0 -140.5 -3t-93 -12t-51 -25.5t-15.5 -42.5q0 -22 12 -37.5t37 -26.5t63.5 -19t91.5 -15zM402 357
q-86 -14 -137 -46.5t-51 -91.5q0 -38 21 -63t63 -39.5t104.5 -20t145.5 -5.5h15q82 0 145 5t106.5 18t66 35t22.5 55q0 29 -15 47.5t-44.5 30.5t-73.5 20.5t-102 16.5z" />
    <glyph glyph-name="nine" unicode="9" horiz-adv-x="1118" 
d="M421 266q-83 0 -148.5 9t-110.5 32.5t-68.5 64.5t-23.5 106q0 62 26.5 108.5t82.5 77.5t143.5 46.5t210.5 15.5q126 0 217.5 -22t150.5 -68.5t87 -119.5t28 -176q0 -180 -97.5 -266t-278.5 -86h-501v106h495q61 0 104.5 9.5t73 30.5t46 53.5t22.5 78.5h-459zM532 620
q-105 0 -168.5 -10.5t-97.5 -29t-45 -44t-11 -55.5q0 -29 9.5 -50t35 -34.5t71 -20t117.5 -6.5h441q-2 64 -20.5 111t-59 78t-107 46t-165.5 15z" />
    <glyph glyph-name="colon" unicode=":" horiz-adv-x="305" 
d="M143 453q32 0 54 -18t22 -56v-5q0 -39 -22 -56.5t-54 -17.5h-11q-33 0 -54.5 17.5t-21.5 56.5v5q0 38 21.5 56t54.5 18h11zM143 147q32 0 54 -18t22 -56v-5q0 -39 -22 -56.5t-54 -17.5h-11q-33 0 -54.5 17.5t-21.5 56.5v5q0 38 21.5 56t54.5 18h11z" />
    <glyph glyph-name="semicolon" unicode=";" horiz-adv-x="370" 
d="M166 147q38 0 63.5 -20.5t25.5 -61.5v-5q0 -21 -7 -44t-28 -63l-78 -151h-80l79 179q-29 4 -49.5 24.5t-20.5 55.5v6q0 22 7.5 37t19.5 24.5t27.5 14t32.5 4.5h8zM176 453q32 0 54 -18t22 -56v-5q0 -39 -22 -56.5t-54 -17.5h-11q-33 0 -54.5 17.5t-21.5 56.5v5
q0 38 21.5 56t54.5 18h11z" />
    <glyph glyph-name="less" unicode="&#x3c;" horiz-adv-x="830" 
d="M724 88l-34 -97l-608 225v132l606 219l37 -98l-537 -185z" />
    <glyph glyph-name="equal" unicode="=" horiz-adv-x="830" 
d="M61 379v104h679v-104h-679zM61 98v104h679v-104h-679z" />
    <glyph glyph-name="greater" unicode="&#x3e;" horiz-adv-x="830" 
d="M612 284l-537 185l37 98l606 -219v-132l-608 -225l-34 97z" />
    <glyph glyph-name="question" unicode="?" horiz-adv-x="914" 
d="M17 620v106h560q38 0 67.5 -1.5t52 -5t40.5 -9t33 -14.5q35 -20 52 -55t17 -89q0 -83 -48 -122t-141 -55l-167 -29q-28 -5 -36.5 -18.5t-8.5 -37.5v-72h-117v109q0 22 4.5 40.5t15.5 32.5t31 24.5t51 15.5l169 28q26 4 45.5 9t32 14t19 24t6.5 38t-6.5 35t-17.5 20
q-10 7 -26.5 9.5t-47.5 2.5h-580zM375 -6q-32 0 -53 17t-21 55v5q0 38 21 55t53 17h11q31 0 52.5 -17t21.5 -55v-5q0 -38 -21.5 -55t-52.5 -17h-11z" />
    <glyph glyph-name="at" unicode="@" horiz-adv-x="1301" 
d="M873 523v-247h72q69 0 105.5 39t36.5 113q0 73 -27 115t-76 63.5t-117 27.5t-149 6h-137q-74 0 -145 -9.5t-127.5 -40t-91 -86.5t-34.5 -149q0 -84 24.5 -137.5t71.5 -83.5t116.5 -41.5t159.5 -11.5h338v-93h-324q-109 0 -200.5 14t-157.5 54.5t-102.5 112.5t-36.5 188
q0 75 18.5 132.5t52.5 100t81 71t103.5 45.5t120.5 24.5t133 7.5h137q54 0 111 -4t110 -15t100.5 -32t82.5 -55.5t55.5 -84t20.5 -118.5q0 -57 -18.5 -101.5t-53 -75.5t-84 -47.5t-110.5 -16.5h-393q-90 0 -137 45.5t-47 123.5q0 74 47.5 120t131.5 46h339zM772 276v159
h-238q-31 0 -55 -19t-24 -60q0 -35 21 -57.5t58 -22.5h238z" />
    <glyph glyph-name="A" unicode="A" horiz-adv-x="1183" 
d="M882 140h-613l-93 -140h-156l493 726h124l496 -726h-157zM340 246h471l-236 351z" />
    <glyph glyph-name="B" unicode="B" horiz-adv-x="1147" 
d="M110 726h627q79 0 135 -14.5t91 -46.5q51 -46 51 -126q0 -54 -30 -94.5t-81 -59.5q32 -8 59.5 -23.5t47.5 -38.5t31.5 -52.5t11.5 -65.5q0 -46 -17 -83t-49 -63q-38 -30 -93.5 -44.5t-136.5 -14.5h-647v726zM753 102q53 0 81.5 7t45.5 23q16 14 23 35.5t7 47.5t-7 46.5
t-23 34.5q-17 16 -45.5 23t-81.5 7h-504v-224h504zM725 422q45 0 73.5 4.5t45.5 20.5q14 12 22 30.5t8 44.5t-8 44.5t-22 30.5q-17 16 -45.5 21t-73.5 5h-476v-201h476z" />
    <glyph glyph-name="C" unicode="C" horiz-adv-x="1053" 
d="M957 106v-106h-374q-83 0 -147 4t-114 15t-88 29t-69 47q-49 45 -74 111t-25 157t25 157t74 111q31 28 69 46.5t88 29.5t114 15t147 4h374v-106h-363q-65 0 -116.5 -2.5t-90.5 -9.5t-68 -20t-49 -34q-33 -35 -45 -85t-12 -106t12 -106t45 -85q20 -21 49 -34t68 -20
t90.5 -9.5t116.5 -2.5h363z" />
    <glyph glyph-name="D" unicode="D" horiz-adv-x="1209" 
d="M110 726h486q83 0 147 -4t114 -15t88 -29.5t69 -46.5q49 -45 74 -111t25 -157t-25 -157t-74 -111q-31 -29 -69 -47t-88 -29t-114 -15t-147 -4h-486v726zM249 621v-516h336q65 0 116.5 2.5t90.5 10t68 20.5t49 34q33 35 45 85t12 106t-12 106t-45 85q-20 21 -49 34
t-68 20.5t-90.5 10t-116.5 2.5h-336z" />
    <glyph glyph-name="E" unicode="E" horiz-adv-x="1038" 
d="M948 0h-838v726h834v-105h-695v-199h473v-103h-473v-214h699v-105z" />
    <glyph glyph-name="F" unicode="F" horiz-adv-x="996" 
d="M110 726h818v-105h-679v-199h457v-103h-457v-319h-139v726z" />
    <glyph glyph-name="G" unicode="G" horiz-adv-x="1156" 
d="M897 106v241h135v-347h-449q-83 0 -147 4t-114 15t-88 29t-69 47q-49 45 -74 111t-25 157t25 157t74 111q31 28 69 46.5t88 29.5t114 15t147 4h435v-106h-424q-65 0 -116.5 -2.5t-90.5 -9.5t-68 -20t-49 -34q-33 -35 -45 -85t-12 -106t12 -106t45 -85q20 -21 49 -34
t68 -20t90.5 -9.5t116.5 -2.5h303z" />
    <glyph glyph-name="H" unicode="H" horiz-adv-x="1218" 
d="M1078 0h-139v326h-690v-326h-139v726h139v-292h690v292h139v-726z" />
    <glyph glyph-name="I" unicode="I" horiz-adv-x="393" 
d="M112 726h139v-726h-139v726z" />
    <glyph glyph-name="J" unicode="J" horiz-adv-x="969" 
d="M66 0v106h355q83 0 138.5 13t87.5 43q29 27 41.5 69.5t12.5 101.5v393h139v-412q0 -79 -19 -134t-61 -94q-44 -42 -117.5 -64t-187.5 -22h-389z" />
    <glyph glyph-name="K" unicode="K" horiz-adv-x="1120" 
d="M110 0v726h140v-369l586 369h195l-493 -306l524 -420h-192l-438 354l-182 -113v-241h-140z" />
    <glyph glyph-name="L" unicode="L" horiz-adv-x="1000" 
d="M249 105h673v-105h-812v726h139v-621z" />
    <glyph glyph-name="M" unicode="M" horiz-adv-x="1428" 
d="M1288 0h-136v521l-388 -489h-121l-401 487v-519h-132v726h117l479 -583l462 583h120v-726z" />
    <glyph glyph-name="N" unicode="N" horiz-adv-x="1242" 
d="M235 726l735 -575v575h132v-726h-125l-735 575v-575h-132v726h125z" />
    <glyph glyph-name="O" unicode="O" horiz-adv-x="1274" 
d="M66 363q0 88 25 156t73 114q31 30 69.5 50t89.5 32.5t116.5 17.5t150.5 5h64q85 0 150.5 -5t116.5 -17.5t89.5 -32.5t69.5 -50q48 -46 73 -114t25 -156t-25 -156t-73 -114q-31 -30 -69.5 -50t-89.5 -32.5t-116.5 -17.5t-150.5 -5h-64q-85 0 -150.5 5t-116.5 17.5
t-89.5 32.5t-69.5 50q-48 46 -73 114t-25 156zM1031 363q0 57 -11.5 107t-45.5 85q-21 21 -50 34.5t-69 21t-91.5 10.5t-116.5 3h-50q-65 0 -116.5 -3t-91.5 -10.5t-69 -21t-50 -34.5q-34 -35 -45.5 -85t-11.5 -107t11.5 -107t45.5 -85q21 -21 50 -34.5t69 -21t91.5 -10.5
t116.5 -3h50q65 0 116.5 3t91.5 10.5t69 21t50 34.5q34 35 45.5 85t11.5 107z" />
    <glyph glyph-name="P" unicode="P" horiz-adv-x="1126" 
d="M710 325q57 0 93 8.5t57 28.5q34 34 34 111t-34 111q-21 20 -57 28.5t-93 8.5h-461v-296h461zM249 220v-220h-139v726h613q86 0 148.5 -17.5t102.5 -57.5q30 -30 46.5 -74t16.5 -104t-16.5 -104t-46.5 -74q-40 -40 -102.5 -57.5t-148.5 -17.5h-474z" />
    <glyph glyph-name="Q" unicode="Q" horiz-adv-x="1274" 
d="M716 -81q-18 22 -31.5 35.5t-27 21t-28.5 10t-37 2.5h-2q-85 0 -150.5 5t-116.5 17.5t-89.5 32.5t-69.5 50q-48 46 -73 114t-25 156t25 156t73 114q31 30 69.5 50t89.5 32.5t116.5 17.5t150.5 5h64q85 0 150.5 -5t116.5 -17.5t89.5 -32.5t69.5 -50q48 -46 73 -114
t25 -156t-25 -156t-73 -114q-47 -45 -112 -68.5t-164 -31.5q18 -14 37.5 -34t48.5 -55l68 -83l-116 -57zM597 624q-65 0 -116.5 -3t-91.5 -10.5t-69 -21t-50 -34.5q-34 -35 -45.5 -85t-11.5 -107t11.5 -107t45.5 -85q21 -21 50 -34.5t69 -21t91.5 -10.5t116.5 -3h50
q65 0 116.5 3t91.5 10.5t69 21t50 34.5q34 35 45.5 85t11.5 107t-11.5 107t-45.5 85q-21 21 -50 34.5t-69 21t-91.5 10.5t-116.5 3h-50z" />
    <glyph glyph-name="R" unicode="R" horiz-adv-x="1178" 
d="M249 220v-220h-139v726h613q86 0 148.5 -17.5t102.5 -57.5q30 -30 46.5 -74t16.5 -104t-16.5 -104t-46.5 -74q-53 -53 -152 -68q23 -13 48 -32t61 -51l160 -144h-182l-201 182q-14 12 -25 19.5t-22 11.5t-23.5 5.5t-29.5 1.5h-359zM710 325q57 0 93 8.5t57 28.5
q34 34 34 111t-34 111q-21 20 -57 28.5t-93 8.5h-461v-296h461z" />
    <glyph glyph-name="S" unicode="S" horiz-adv-x="1113" 
d="M116 0v104h533q52 0 93.5 2.5t69.5 12t43 28.5t15 51q0 27 -11 43.5t-32 26.5t-52 15.5t-71 9.5l-353 36q-63 6 -113.5 19.5t-86.5 37t-55 58.5t-19 85q0 55 23.5 93t66.5 61t103 33t133 10h560v-104h-549q-57 0 -95 -4t-61 -14.5t-33 -28t-10 -43.5q0 -27 12 -43.5
t34 -26.5t52.5 -15t67.5 -9l356 -36q67 -7 118 -20.5t85 -37t51 -58.5t17 -85q0 -111 -85 -156t-260 -45h-547z" />
    <glyph glyph-name="T" unicode="T" horiz-adv-x="1037" 
d="M573 0h-139v621h-390v105h919v-105h-390v-621z" />
    <glyph glyph-name="U" unicode="U" horiz-adv-x="1189" 
d="M1065 276q0 -69 -16.5 -113t-50.5 -77q-54 -53 -153 -75.5t-246 -22.5h-39q-147 0 -246 22.5t-153 75.5q-34 33 -50.5 77t-16.5 113v450h138v-424q0 -51 9 -84t35 -56q34 -32 103.5 -47.5t188.5 -15.5h24q119 0 188 15.5t104 47.5q26 23 35 56t9 84v424h137v-450z" />
    <glyph glyph-name="V" unicode="V" horiz-adv-x="1160" 
d="M568 130l394 596h153l-487 -726h-124l-489 726h158z" />
    <glyph glyph-name="W" unicode="W" horiz-adv-x="1620" 
d="M465 143l285 583h96l285 -585l306 585h138l-383 -726h-127l-268 553l-271 -553h-127l-384 726h145z" />
    <glyph glyph-name="X" unicode="X" horiz-adv-x="1151" 
d="M558 454l313 272h175l-397 -343l446 -383h-182l-356 308l-353 -308h-178l440 379l-404 347h183z" />
    <glyph glyph-name="Y" unicode="Y" horiz-adv-x="1143" 
d="M626 0h-140v255l-481 471h169l387 -381l385 381h162l-482 -474v-252z" />
    <glyph glyph-name="Z" unicode="Z" horiz-adv-x="1129" 
d="M74 726h934v-95l-724 -526h732v-105h-942v95l724 526h-724v105z" />
    <glyph glyph-name="bracketleft" unicode="[" horiz-adv-x="580" 
d="M450 838v-109h-200v-794h200v-109h-330v1012h330z" />
    <glyph glyph-name="backslash" unicode="\" horiz-adv-x="781" 
d="M564.012 -40h130.992l-507.97 792h-130.992z" />
    <glyph glyph-name="bracketright" unicode="]" horiz-adv-x="600" 
d="M450 838v-1012h-350v109h220v794h-220v109h350z" />
    <glyph glyph-name="asciicircum" unicode="^" horiz-adv-x="869" 
d="M715 190h-132l-164 236l-161 -236h-135l230 334h130z" />
    <glyph glyph-name="underscore" unicode="_" horiz-adv-x="923" 
d="M30 -126h833v-102h-833v102z" />
    <glyph glyph-name="grave" unicode="`" horiz-adv-x="680" 
d="M476 545h-125l-191 185h180z" />
    <glyph glyph-name="a" unicode="a" horiz-adv-x="905" 
d="M666 102v249h-313q-53 0 -84.5 -5.5t-52.5 -26.5q-16 -16 -23 -40.5t-7 -51.5t7 -51.5t23 -40.5q21 -21 52.5 -27t84.5 -6h313zM345 0q-79 0 -133 15.5t-92 49.5q-33 29 -49.5 71t-16.5 91t16.5 91t49.5 71q38 34 92 49t133 15h451v-453h-451z" />
    <glyph glyph-name="b" unicode="b" horiz-adv-x="905" 
d="M530 0h-451v726h130v-273h321q79 0 133 -15t92 -49q33 -29 49.5 -71t16.5 -91t-16.5 -91t-49.5 -71q-38 -34 -92 -49.5t-133 -15.5zM522 102q53 0 84.5 6t52.5 27q16 16 23 40.5t7 51.5t-7 51.5t-23 40.5q-21 21 -52.5 26.5t-84.5 5.5h-313v-249h313z" />
    <glyph glyph-name="c" unicode="c" horiz-adv-x="816" 
d="M734 0h-389q-79 0 -133 15.5t-92 49.5q-33 29 -49.5 71t-16.5 91t16.5 91t49.5 71q38 34 92 49t133 15h389v-102h-381q-53 0 -84.5 -5.5t-52.5 -26.5q-16 -16 -23 -40.5t-7 -51.5t7 -51.5t23 -40.5q21 -21 52.5 -27t84.5 -6h381v-102z" />
    <glyph glyph-name="d" unicode="d" horiz-adv-x="908" 
d="M666 102v249h-313q-53 0 -84.5 -5.5t-52.5 -26.5q-16 -16 -23 -40.5t-7 -51.5t7 -51.5t23 -40.5q21 -21 52.5 -27t84.5 -6h313zM345 0q-79 0 -133 15.5t-92 49.5q-33 29 -49.5 71t-16.5 91t16.5 91t49.5 71q38 34 92 49t133 15h321v273h130v-726h-451z" />
    <glyph glyph-name="e" unicode="e" horiz-adv-x="856" 
d="M768 180h-579q5 -38 29 -56q18 -14 49.5 -19t86.5 -5h375v-100h-385q-65 0 -123.5 10t-100.5 43q-30 24 -48 63t-18 98q0 54 16.5 97.5t48.5 73.5q38 35 95 51.5t141 16.5h113q79 0 138 -16.5t97 -51.5q32 -30 48.5 -73.5t16.5 -97.5v-34zM353 353q-41 0 -67 -3.5
t-44 -11.5q-44 -20 -51 -70h445q-5 25 -16 41t-30 26t-47.5 14t-68.5 4h-121z" />
    <glyph glyph-name="f" unicode="f" horiz-adv-x="590" 
d="M576 726v-102h-221q-48 0 -74.5 -6.5t-43.5 -22.5q-28 -28 -28 -88v-54h319v-98h-319v-355h-130v502q0 67 13 105t42 66q55 53 192 53h250z" />
    <glyph glyph-name="g" unicode="g" horiz-adv-x="905" 
d="M666 0h-321q-79 0 -133 15.5t-92 49.5q-33 29 -49.5 71t-16.5 91t16.5 91t49.5 71q38 34 92 49t133 15h451v-470q0 -107 -65 -165q-38 -34 -92.5 -48t-133.5 -14h-308v102h300q53 0 84.5 6t52.5 27q32 32 32 92v17zM666 102v249h-313q-53 0 -84.5 -5.5t-52.5 -26.5
q-16 -16 -23 -40.5t-7 -51.5t7 -51.5t23 -40.5q21 -21 52.5 -27t84.5 -6h313z" />
    <glyph glyph-name="h" unicode="h" 
d="M226 0h-130v726h130v-273h323q72 0 119 -14t77 -43q26 -25 38.5 -60.5t12.5 -86.5v-249h-130v234q0 61 -26 87q-17 16 -47 23t-73 7h-294v-351z" />
    <glyph glyph-name="i" unicode="i" horiz-adv-x="322" 
d="M211 0h-130v453h130v-453zM139 555q-32 0 -52.5 15.5t-20.5 49.5v5q0 35 20.5 50t52.5 15h11q30 0 51.5 -15t21.5 -50v-5q0 -34 -21.5 -49.5t-51.5 -15.5h-11z" />
    <glyph glyph-name="j" unicode="j" horiz-adv-x="322" 
d="M211 -58q0 -95 -52.5 -140.5t-149.5 -45.5h-77v100h34q38 0 60.5 4t34.5 15.5t16 32t4 52.5v493h130v-511zM139 555q-32 0 -52.5 15.5t-20.5 49.5v5q0 35 20.5 50t52.5 15h11q30 0 51.5 -15t21.5 -50v-5q0 -34 -21.5 -49.5t-51.5 -15.5h-11z" />
    <glyph glyph-name="k" unicode="k" horiz-adv-x="790" 
d="M209 0h-130v726h130v-470l317 197h178l-279 -171l313 -282h-169l-241 223l-119 -73v-150z" />
    <glyph glyph-name="l" unicode="l" horiz-adv-x="322" 
d="M211 0h-130v726h130v-726z" />
    <glyph glyph-name="m" unicode="m" horiz-adv-x="1333" 
d="M79 0v453h905q72 0 119 -14t77 -43q26 -25 38.5 -60.5t12.5 -86.5v-249h-130v234q0 61 -26 87q-17 16 -47 23t-73 7h-238v-351h-130v351h-378v-351h-130z" />
    <glyph glyph-name="n" unicode="n" 
d="M79 0v453h453q72 0 119 -14t77 -43q26 -25 38.5 -60.5t12.5 -86.5v-249h-130v234q0 61 -26 87q-17 16 -47 23t-73 7h-294v-351h-130z" />
    <glyph glyph-name="o" unicode="o" horiz-adv-x="897" 
d="M352 0q-160 0 -233 66q-32 29 -48.5 68t-16.5 92q0 101 65 160q74 67 233 67h163q159 0 233 -67q65 -59 65 -160q0 -53 -16.5 -92t-48.5 -68q-73 -66 -233 -66h-163zM361 351q-51 0 -87 -7.5t-57 -27.5q-17 -16 -24 -35.5t-7 -54.5t7 -54.5t24 -35.5q21 -20 57 -27t87 -7
h145q51 0 87 7t57 27q17 16 24 35.5t7 54.5t-7 54.5t-24 35.5q-21 20 -57 27.5t-87 7.5h-145z" />
    <glyph glyph-name="p" unicode="p" horiz-adv-x="905" 
d="M530 453q79 0 133 -15.5t92 -49.5q33 -29 49.5 -71t16.5 -91t-16.5 -91t-49.5 -71q-38 -34 -92 -49t-133 -15h-321v-244h-130v697h451zM209 351v-249h313q53 0 84.5 5.5t52.5 26.5q16 16 23 40.5t7 51.5t-7 51.5t-23 40.5q-21 21 -52.5 27t-84.5 6h-313z" />
    <glyph glyph-name="q" unicode="q" horiz-adv-x="905" 
d="M353 351q-53 0 -84.5 -6t-52.5 -27q-16 -16 -23 -40.5t-7 -51.5t7 -51.5t23 -40.5q21 -21 52.5 -26.5t84.5 -5.5h313v249h-313zM796 453v-697h-130v244h-321q-79 0 -133 15t-92 49q-33 29 -49.5 71t-16.5 91t16.5 91t49.5 71q38 34 92 49.5t133 15.5h451z" />
    <glyph glyph-name="r" unicode="r" horiz-adv-x="595" 
d="M315 351q-32 0 -52 -5t-34 -16q-15 -13 -21 -30.5t-6 -46.5v-253h-130v267q0 63 21.5 100.5t63.5 57.5q31 16 68.5 22t99.5 6h225v-102h-235z" />
    <glyph glyph-name="s" unicode="s" horiz-adv-x="847" 
d="M76 0v102h521q31 0 44.5 8t13.5 29q0 37 -58 37h-395q-66 0 -106 39t-40 105q0 33 12.5 58t34 41.5t50 25t61.5 8.5h510v-102h-490q-32 0 -48 -7t-16 -29q0 -20 13.5 -28.5t44.5 -8.5h383q70 0 114 -37t44 -103t-41.5 -102t-107.5 -36h-544z" />
    <glyph glyph-name="t" unicode="t" horiz-adv-x="647" 
d="M319 0q-72 0 -119 14t-77 43q-26 25 -38.5 60.5t-12.5 86.5v475h130v-226h309v-98h-309v-136q0 -61 26 -87q17 -16 47 -23t73 -7h215v-102h-244z" />
    <glyph glyph-name="u" unicode="u" 
d="M772 453v-453h-453q-72 0 -119 14t-77 43q-26 25 -38.5 60.5t-12.5 86.5v249h130v-234q0 -61 26 -87q17 -16 47 -23t73 -7h294v351h130z" />
    <glyph glyph-name="v" unicode="v" horiz-adv-x="853" 
d="M472 0h-122l-340 453h147l256 -347l258 347h142z" />
    <glyph glyph-name="w" unicode="w" horiz-adv-x="1139" 
d="M851 0h-123l-171 309l-165 -309h-123l-259 453h139l183 -337l174 337h104l182 -337l175 337h132z" />
    <glyph glyph-name="x" unicode="x" horiz-adv-x="851" 
d="M801 0h-173l-221 174l-215 -174h-172l303 237l-277 216h172l190 -150l180 150h171l-269 -211z" />
    <glyph glyph-name="y" unicode="y" 
d="M642 0h-323q-72 0 -119 14t-77 43q-26 25 -38.5 60.5t-12.5 86.5v249h130v-234q0 -61 26 -87q17 -16 47 -23t73 -7h294v351h130v-464q0 -114 -64 -171q-19 -17 -41 -28.5t-49.5 -19t-61 -11t-75.5 -3.5h-308v102h300q53 0 84.5 6t52.5 27q32 32 32 92v17z" />
    <glyph glyph-name="z" unicode="z" horiz-adv-x="844" 
d="M754 0h-686v84l457 273h-451v96h673v-82l-463 -275h470v-96z" />
    <glyph glyph-name="braceleft" unicode="{" horiz-adv-x="656" 
d="M191 212q0 38 -15 56t-53 20l-56 3v101l56 2q35 2 51.5 20t16.5 56v131q0 71 7.5 117.5t36.5 73.5q26 25 61 35.5t91 10.5h140v-109h-128q-25 0 -39.5 -4.5t-24.5 -15.5q-8 -10 -11 -24.5t-3 -35.5v-168q0 -25 -2.5 -47.5t-9.5 -41.5t-20 -33t-35 -21v-8q22 -4 35 -15
t20 -27.5t9.5 -37t2.5 -44.5v-191q0 -21 3 -35.5t11 -24.5q10 -11 24.5 -15.5t39.5 -4.5h128v-109h-139q-57 0 -92 10t-61 36q-29 27 -36.5 73.5t-7.5 117.5v149z" />
    <glyph glyph-name="bar" unicode="|" horiz-adv-x="385" 
d="M118 796h119v-1114h-119v1114z" />
    <glyph glyph-name="braceright" unicode="}" horiz-adv-x="656" 
d="M435 63q0 -71 -7.5 -117.5t-36.5 -73.5q-26 -26 -61 -36t-92 -10h-139v109h128q25 0 39.5 4.5t24.5 15.5q8 10 11 24.5t3 35.5v191q0 24 2.5 44.5t9.5 37t20 27.5t35 15v8q-22 7 -35 21t-20 33t-9.5 41.5t-2.5 47.5v168q0 21 -3 35.5t-11 24.5q-10 11 -24.5 15.5
t-39.5 4.5h-128v109h140q56 0 91 -10.5t61 -35.5q29 -27 36.5 -73.5t7.5 -117.5v-131q0 -38 16.5 -56t51.5 -20l56 -2v-101l-56 -3q-38 -2 -53 -20t-15 -56v-149z" />
    <glyph glyph-name="asciitilde" unicode="~" horiz-adv-x="869" 
d="M812 404q-42 -75 -95.5 -108.5t-118.5 -33.5q-26 0 -48 3t-41.5 8t-38 12t-38.5 16l-46 20q-31 14 -61.5 23.5t-56.5 9.5q-47 0 -85 -23.5t-76 -65.5l-80 74q54 66 113.5 96.5t125.5 30.5q42 0 81 -11t84 -31l45 -21q33 -16 61 -26t55 -10q39 0 71.5 23.5t58.5 68.5z" />
    <glyph glyph-name="nonbreakingspace" unicode="&#xa0;" horiz-adv-x="370" 
 />
    <glyph glyph-name="exclamdown" unicode="&#xa1;" horiz-adv-x="341" 
d="M210 210.015h-108l-16 -479.971h139zM150 462q-32 0 -53 -16.999t-21 -54.9971v-5q0 -37.9971 21 -54.9961t53 -16.999h11q31 0 52.5 16.999t21.5 54.9961v5q0 37.998 -21.5 54.9971t-52.5 16.999h-11z" />
    <glyph glyph-name="cent" unicode="&#xa2;" horiz-adv-x="816" 
d="M734 0h-222v-198h-102v198h-65q-79 0 -133 15.5t-92 49.5q-33 29 -49.5 71t-16.5 91t16.5 91t49.5 71q38 34 92 49t133 15h65v208h102v-208h222v-102h-222v-249h222v-102zM216 135q21 -21 52.5 -27t84.5 -6h57v249h-57q-53 0 -84.5 -5.5t-52.5 -26.5q-16 -16 -23 -40.5
t-7 -51.5t7 -51.5t23 -40.5z" />
    <glyph glyph-name="sterling" unicode="&#xa3;" horiz-adv-x="1048" 
d="M951 726v-106h-346q-81 0 -128 -10t-80 -40q-27 -24 -38.5 -65t-11.5 -101h381v-104h-381v-194h623v-106h-920v106h158v297q0 100 25 161.5t77 98.5q48 35 116 49t165 14h360z" />
    <glyph glyph-name="currency" unicode="&#xa4;" horiz-adv-x="1027" 
d="M749 158q-14 -6 -33 -10.5t-40 -7.5t-41.5 -4.5t-37.5 -1.5h-197q-17 0 -37.5 1.5t-41.5 4.5t-40.5 7.5t-32.5 10.5l-109 -102l-74 55l108 105q-12 13 -20.5 30t-14 36t-8 37.5t-2.5 34.5t2.5 34.5t8 37.5t14 36t20.5 30l-108 105l74 55l109 -102q13 6 32.5 10.5
t40.5 7.5t41.5 4.5t37.5 1.5h197q17 0 37.5 -1.5t41.5 -4.5t40 -7.5t33 -10.5l109 102l74 -55l-108 -105q12 -13 20.5 -30t14 -36t8 -37.5t2.5 -34.5t-2.5 -34.5t-8 -37.5t-14 -36t-20.5 -30l108 -105l-74 -55zM746 354q0 64 -33 92q-20 20 -55.5 27t-83.5 7h-151
q-48 0 -83.5 -7t-56.5 -27q-16 -14 -24 -37.5t-8 -54.5t8 -54.5t24 -37.5q21 -20 56.5 -27t83.5 -7h151q48 0 83.5 7t55.5 27q33 28 33 92z" />
    <glyph glyph-name="yen" unicode="&#xa5;" horiz-adv-x="1093" 
d="M601 203h220v-91h-220v-112h-140v112h-233v91h233v75h-253l-20 88h192l-340 360h162l334 -356l332 356h155l-339 -360h167l-20 -88h-229l-1 -1v-74z" />
    <glyph glyph-name="brokenbar" unicode="&#xa6;" horiz-adv-x="385" 
d="M118 796h119v-453h-119v453zM118 145h119v-462h-119v462z" />
    <glyph glyph-name="section" unicode="&#xa7;" horiz-adv-x="873" 
d="M60 272q0 29 11 55t29 47.5t42.5 38t51.5 26.5q-50 20 -75.5 55t-25.5 89q0 31 13.5 57t38 45t58 30t73.5 11h454v-95h-455q-32 0 -51 -15t-19 -40q0 -26 18 -41t56 -26l354 -106q81 -24 115.5 -64.5t34.5 -106.5q0 -59 -30.5 -104.5t-89.5 -68.5q53 -21 77.5 -51
t24.5 -85q0 -66 -41 -105.5t-125 -39.5h-503v95h501q61 0 61 50q0 12 -3 21.5t-11 18t-24 15.5t-41 15l-370 108q-71 21 -110 62t-39 109zM276 409q-62 -24 -86 -58t-24 -69q0 -67 95 -96l302 -94l1 1q56 16 84.5 49.5t28.5 73.5q0 38 -18.5 60.5t-63.5 36.5z" />
    <glyph glyph-name="dieresis" unicode="&#xa8;" horiz-adv-x="680" 
d="M184 690q33 0 56 -17t23 -55v-4q0 -38 -23 -55t-56 -17h-11q-35 0 -57 17t-22 55v4q0 38 22 55t57 17h11zM477 690q33 0 56 -17t23 -55v-4q0 -38 -23 -55t-56 -17h-11q-35 0 -57 17t-22 55v4q0 38 22 55t57 17h11z" />
    <glyph glyph-name="copyright" unicode="&#xa9;" horiz-adv-x="1280" 
d="M446 363q0 -62 38 -86t127 -24h214v-74h-224q-78 0 -125 11.5t-76 40.5q-23 23 -35.5 57t-12.5 79q0 39 12.5 72t35.5 56q29 29 76 41t125 12h224v-74h-214q-34 0 -64 -2.5t-52.5 -13.5t-35.5 -33t-13 -62zM699 66q91 0 163.5 14.5t123.5 47.5q52 35 78 92.5t26 142.5
q0 140 -72 208q-50 47 -130.5 67.5t-192.5 20.5h-143q-109 0 -189.5 -20.5t-130.5 -67.5q-72 -68 -72 -208q0 -85 26 -142.5t78 -92.5q51 -33 123.5 -47.5t163.5 -14.5h148zM565 -12q-119 0 -211.5 18.5t-157 62.5t-98 115.5t-33.5 178.5t33.5 179t98 115.5t157 62
t211.5 18.5h120q118 0 211 -18.5t157.5 -62t98 -115.5t33.5 -179t-33.5 -178.5t-98 -115.5t-157.5 -62.5t-211 -18.5h-120z" />
    <glyph glyph-name="ordfeminine" unicode="&#xaa;" horiz-adv-x="590" 
d="M386 523q0 29 -20 36t-65 7h-198v62h214q48 0 82 -8.5t56 -30.5q17 -17 24 -42t7 -56v-138q-33 -5 -76.5 -9t-97.5 -4h-94q-153 0 -153 95q0 41 32 64.5t101 23.5h188zM223 465q-32 0 -44.5 -7t-12.5 -24q0 -18 15 -24.5t52 -6.5h71q21 0 42.5 0.5t38.5 2.5v59h-162z" />
    <glyph glyph-name="guillemotleft" unicode="&#xab;" horiz-adv-x="1033" 
d="M476 121l-53 -84l-368 214v77l358 207l60 -84l-274 -160zM913 121l-53 -84l-368 214v77l358 207l60 -84l-274 -160z" />
    <glyph glyph-name="logicalnot" unicode="&#xac;" horiz-adv-x="830" 
d="M617 80v299h-556v104h679v-403h-123z" />
    <glyph glyph-name="uni00AD" unicode="&#xad;" horiz-adv-x="579" 
d="M80 279h389v-102h-389v102z" />
    <glyph glyph-name="registered" unicode="&#xae;" horiz-adv-x="1280" 
d="M699 66q91 0 163.5 14.5t123.5 47.5q52 35 78 92.5t26 142.5q0 140 -72 208q-50 47 -130.5 67.5t-192.5 20.5h-143q-109 0 -189.5 -20.5t-130.5 -67.5q-72 -68 -72 -208q0 -85 26 -142.5t78 -92.5q51 -33 123.5 -47.5t163.5 -14.5h148zM691 259q-14 14 -28.5 19t-42.5 5
h-133v-104h-93v369h312q78 0 119 -30t41 -104q0 -113 -106 -127q14 -5 28 -16t30 -27l63 -65h-114zM708 356q27 0 45.5 13t18.5 45q0 33 -17 46.5t-51 13.5h-217v-118h221zM565 -12q-119 0 -211.5 18.5t-157 62.5t-98 115.5t-33.5 178.5t33.5 179t98 115.5t157 62
t211.5 18.5h120q118 0 211 -18.5t157.5 -62t98 -115.5t33.5 -179t-33.5 -178.5t-98 -115.5t-157.5 -62.5t-211 -18.5h-120z" />
    <glyph glyph-name="macron" unicode="&#xaf;" horiz-adv-x="680" 
d="M68 674h514v-90h-514v90z" />
    <glyph glyph-name="degree" unicode="&#xb0;" horiz-adv-x="544" 
d="M283 534q29 0 49.5 4.5t31.5 18.5q10 8 14 24t4 36t-4 36t-14 24q-11 14 -31.5 18.5t-49.5 4.5h-52q-29 0 -49 -4.5t-32 -18.5q-10 -8 -14 -24t-4 -36t4 -36t14 -24q12 -14 32 -18.5t49 -4.5h52zM215 452q-48 0 -83.5 11.5t-58.5 37.5q-38 41 -38 116q0 36 10 65.5
t28 50.5q23 26 58.5 37.5t83.5 11.5h84q48 0 83.5 -11.5t58.5 -37.5q18 -21 28 -50.5t10 -65.5q0 -75 -38 -116q-23 -26 -58.5 -37.5t-83.5 -11.5h-84z" />
    <glyph glyph-name="plusminus" unicode="&#xb1;" horiz-adv-x="830" 
d="M462 393v-183h-123v183h-278v104h278v186h123v-186h278v-104h-278zM61 0v104h679v-104h-679z" />
    <glyph glyph-name="twosuperior" unicode="&#xb2;" horiz-adv-x="546" 
d="M250 453h222v-83h-422v71l220 115q40 21 58.5 32.5t18.5 28.5q0 33 -47 33h-245v83h256q40 0 67 -4t45 -14q20 -11 33.5 -31t13.5 -51q0 -36 -19 -61t-71 -52z" />
    <glyph glyph-name="threesuperior" unicode="&#xb3;" horiz-adv-x="582" 
d="M343 592h25q69 0 104.5 -28t35.5 -77q0 -117 -166 -117h-292v80h286q28 0 38.5 10.5t10.5 27.5q0 19 -13.5 27t-47.5 8h-151v45l143 86h-260v79h410v-71z" />
    <glyph glyph-name="acute" unicode="&#xb4;" horiz-adv-x="680" 
d="M339 730h180l-191 -185h-125z" />
    <glyph glyph-name="micro" unicode="&#xb5;" 
d="M357 0q-36 0 -59.5 2t-43.5 7q-32 8 -52 31v-313h-130v726h130v-234q0 -61 26 -87q17 -16 47 -23t73 -7h294v351h130v-453h-415z" />
    <glyph glyph-name="paragraph" unicode="&#xb6;" horiz-adv-x="919" 
d="M665 641h-143v-863h-114v505h-64q-79 0 -129.5 15.5t-82.5 46.5q-30 27 -44.5 67.5t-14.5 91.5q0 105 59 161q32 29 82.5 45t129.5 16h435v-948h-114v863z" />
    <glyph glyph-name="periodcentered" unicode="&#xb7;" horiz-adv-x="305" 
d="M143 399q32 0 54 -18t22 -56v-5q0 -39 -22 -56.5t-54 -17.5h-11q-33 0 -54.5 17.5t-21.5 56.5v5q0 38 21.5 56t54.5 18h11z" />
    <glyph glyph-name="cedilla" unicode="&#xb8;" horiz-adv-x="680" 
d="M224 8h84l-12 -61h70q78 0 118.5 -31.5t40.5 -88.5q0 -66 -44.5 -101t-138.5 -35h-201v83h201q41 0 54.5 11.5t13.5 33.5q0 27 -15.5 36t-48.5 9h-151z" />
    <glyph glyph-name="onesuperior" unicode="&#xb9;" horiz-adv-x="360" 
d="M51 733h225v-363h-108v275h-117v88z" />
    <glyph glyph-name="ordmasculine" unicode="&#xba;" horiz-adv-x="590" 
d="M310 405q26 0 47.5 3t36.5 12t23 24.5t8 40.5q0 48 -31.5 63.5t-83.5 15.5h-58q-25 0 -46.5 -2.5t-37 -11t-24 -24t-8.5 -41.5q0 -24 8.5 -39.5t24 -24.5t37 -12.5t46.5 -3.5h58zM230 340q-39 0 -74.5 7.5t-62 24.5t-42 44.5t-15.5 68.5q0 39 15.5 66.5t42 44.5t62 25
t74.5 8h100q39 0 74.5 -7.5t62 -24t42 -44.5t15.5 -68q0 -39 -15.5 -67t-42 -45t-62 -25t-74.5 -8h-100z" />
    <glyph glyph-name="guillemotright" unicode="&#xbb;" horiz-adv-x="1033" 
d="M804 291l-274 160l60 84l358 -207v-77l-368 -214l-53 84zM367 291l-274 160l60 84l358 -207v-77l-368 -214l-53 84z" />
    <glyph glyph-name="onequarter" unicode="&#xbc;" horiz-adv-x="1290" 
d="M1115 145v-76h-79v-69h-101v69h-335v69l229 225h136l-227 -218h197v93h101v-93h79zM66 733h225v-363h-108v275h-117v88zM249 -12h-136l721 751h136z" />
    <glyph glyph-name="onehalf" unicode="&#xbd;" horiz-adv-x="1290" 
d="M66 733h225v-363h-108v275h-117v88zM943 83h222v-83h-422v71l220 115q40 21 58.5 32.5t18.5 28.5q0 33 -47 33h-245v83h256q40 0 67 -4t45 -14q20 -11 33.5 -31t13.5 -51q0 -36 -19 -61t-71 -52zM249 -12h-136l721 751h136z" />
    <glyph glyph-name="threequarters" unicode="&#xbe;" horiz-adv-x="1290" 
d="M1192 145v-76h-79v-69h-101v69h-335v69l229 225h136l-227 -218h197v93h101v-93h79zM337 592h25q69 0 104.5 -28t35.5 -77q0 -117 -166 -117h-292v80h286q28 0 38.5 10.5t10.5 27.5q0 19 -13.5 27t-47.5 8h-151v45l143 86h-260v79h410v-71zM332 -12h-136l721 751h136z" />
    <glyph glyph-name="questiondown" unicode="&#xbf;" horiz-adv-x="821" 
d="M867.001 -163.962v-105.994h-559.966q-37.998 0 -67.4961 1.5t-51.9961 5q-22.499 3.5 -40.498 8.99902q-17.999 5.5 -32.998 14.5q-34.998 19.998 -51.9971 54.9961t-16.999 88.9941q0 82.9951 47.9971 121.993q47.9971 38.9971 140.992 54.9961l166.989 28.999
q27.998 4.99902 36.498 18.498q8.49902 13.5 8.49902 37.498v71.9961h116.993v-108.994q0 -21.998 -4.5 -40.4971q-4.49902 -18.499 -15.499 -32.498q-10.999 -13.999 -30.998 -24.498q-19.999 -10.5 -50.9971 -15.499l-168.989 -27.999q-25.998 -3.99902 -45.4971 -8.99902
t-31.998 -13.999q-12.499 -9 -18.999 -23.999t-6.5 -37.9971q0 -22.999 6.5 -34.998t17.499 -19.999q9.99902 -7 26.498 -9.49902q16.499 -2.5 47.4971 -2.5h579.965zM509.022 462q31.998 0 52.9971 -16.999t20.999 -54.9971v-5q0 -37.9971 -20.999 -54.9961
t-52.9971 -16.999h-10.999q-30.998 0 -52.4971 16.999q-21.498 16.999 -21.498 54.9961v5q0 37.998 21.498 54.9971q21.499 16.999 52.4971 16.999h10.999z" />
    <glyph glyph-name="Agrave" unicode="&#xc0;" horiz-adv-x="1183" 
d="M882 140h-613l-93 -140h-156l493 726h124l496 -726h-157zM340 246h471l-236 351zM656 805h-125l-191 185h180z" />
    <glyph glyph-name="Aacute" unicode="&#xc1;" horiz-adv-x="1183" 
d="M882 140h-613l-93 -140h-156l493 726h124l496 -726h-157zM340 246h471l-236 351zM635 990h180l-191 -185h-125z" />
    <glyph glyph-name="Acircumflex" unicode="&#xc2;" horiz-adv-x="1183" 
d="M882 140h-613l-93 -140h-156l493 726h124l496 -726h-157zM340 246h471l-236 351zM467 791h-130l186 188h105l186 -188h-130l-104 99h-9z" />
    <glyph glyph-name="Atilde" unicode="&#xc3;" horiz-adv-x="1183" 
d="M882 140h-613l-93 -140h-156l493 726h124l496 -726h-157zM340 246h471l-236 351zM853 912q-26 -48 -68.5 -75t-95.5 -27q-31 0 -55 6t-50 17l-27 12q-42 19 -75 19q-34 0 -65 -15t-58 -41l-60 54q38 48 84 74.5t106 26.5q20 0 45 -6t50 -17l28 -13q20 -9 38.5 -17
t39.5 -8q54 0 99 57z" />
    <glyph glyph-name="Adieresis" unicode="&#xc4;" horiz-adv-x="1183" 
d="M882 140h-613l-93 -140h-156l493 726h124l496 -726h-157zM340 246h471l-236 351zM435 949q33 0 56 -17t23 -55v-4q0 -38 -23 -55t-56 -17h-11q-35 0 -57 17t-22 55v4q0 38 22 55t57 17h11zM728 949q33 0 56 -17t23 -55v-4q0 -38 -23 -55t-56 -17h-11q-35 0 -57 17t-22 55
v4q0 38 22 55t57 17h11z" />
    <glyph glyph-name="Aring" unicode="&#xc5;" horiz-adv-x="1183" 
d="M882 140h-613l-93 -140h-156l492 725q-39 8 -65.5 32.5t-26.5 72.5q0 27 10.5 47.5t28 34t41.5 20t51 6.5h50q25 0 49 -6t42 -19t29 -33.5t11 -49.5q0 -46 -26.5 -71.5t-68.5 -33.5l496 -725h-157zM340 246h471l-236 351zM582 782q30 0 51.5 8.5t21.5 39.5
q0 29 -21.5 38.5t-51.5 9.5h-12q-30 0 -51.5 -8.5t-21.5 -39.5q0 -29 21.5 -38.5t51.5 -9.5h12z" />
    <glyph glyph-name="AE" unicode="&#xc6;" horiz-adv-x="1644" 
d="M1554 0h-838v140h-421l-120 -140h-155l612 726h918v-105h-695v-199h473v-103h-473v-214h699v-105zM716 246v379h-18l-310 -379h328z" />
    <glyph glyph-name="Ccedilla" unicode="&#xc7;" horiz-adv-x="1053" 
d="M498 1q-63 2 -112.5 7.5t-90 16.5t-72 28t-58.5 42q-49 45 -74 111t-25 157t25 157t74 111q31 28 69 46.5t88 29.5t114 15t147 4h374v-106h-363q-65 0 -116.5 -2.5t-90.5 -9.5t-68 -20t-49 -34q-33 -35 -45 -85t-12 -106t12 -106t45 -85q20 -21 49 -34t68 -20t90.5 -9.5
t116.5 -2.5h363v-106h-374h-1l-10 -53h70q78 0 118.5 -31.5t40.5 -88.5q0 -66 -44.5 -101t-138.5 -35h-201v83h201q41 0 54.5 11.5t13.5 33.5q0 27 -15.5 36t-48.5 9h-151z" />
    <glyph glyph-name="Egrave" unicode="&#xc8;" horiz-adv-x="1038" 
d="M948 0h-838v726h834v-105h-695v-199h473v-103h-473v-214h699v-105zM638 805h-125l-191 185h180z" />
    <glyph glyph-name="Eacute" unicode="&#xc9;" horiz-adv-x="1038" 
d="M948 0h-838v726h834v-105h-695v-199h473v-103h-473v-214h699v-105zM561 990h180l-191 -185h-125z" />
    <glyph glyph-name="Ecircumflex" unicode="&#xca;" horiz-adv-x="1038" 
d="M948 0h-838v726h834v-105h-695v-199h473v-103h-473v-214h699v-105zM427 791h-130l186 188h105l186 -188h-130l-104 99h-9z" />
    <glyph glyph-name="Edieresis" unicode="&#xcb;" horiz-adv-x="1038" 
d="M948 0h-838v726h834v-105h-695v-199h473v-103h-473v-214h699v-105zM390 949q33 0 56 -17t23 -55v-4q0 -38 -23 -55t-56 -17h-11q-35 0 -57 17t-22 55v4q0 38 22 55t57 17h11zM683 949q33 0 56 -17t23 -55v-4q0 -38 -23 -55t-56 -17h-11q-35 0 -57 17t-22 55v4q0 38 22 55
t57 17h11z" />
    <glyph glyph-name="Igrave" unicode="&#xcc;" horiz-adv-x="393" 
d="M112 726h139v-726h-139v726zM267 805h-125l-191 185h180z" />
    <glyph glyph-name="Iacute" unicode="&#xcd;" horiz-adv-x="393" 
d="M112 726h139v-726h-139v726zM239 990h180l-191 -185h-125z" />
    <glyph glyph-name="Icircumflex" unicode="&#xce;" horiz-adv-x="393" 
d="M112 726h139v-726h-139v726zM74 791h-130l186 188h105l186 -188h-130l-104 99h-9z" />
    <glyph glyph-name="Idieresis" unicode="&#xcf;" horiz-adv-x="393" 
d="M112 726h139v-726h-139v726zM41 949q33 0 56 -17t23 -55v-4q0 -38 -23 -55t-56 -17h-11q-35 0 -57 17t-22 55v4q0 38 22 55t57 17h11zM334 949q33 0 56 -17t23 -55v-4q0 -38 -23 -55t-56 -17h-11q-35 0 -57 17t-22 55v4q0 38 22 55t57 17h11z" />
    <glyph glyph-name="Eth" unicode="&#xd0;" horiz-adv-x="1229" 
d="M130 317h-143v94h143v315h486q83 0 147 -4t114 -15t88 -29.5t69 -46.5q49 -45 74 -111t25 -157t-25 -157t-74 -111q-31 -29 -69 -47t-88 -29t-114 -15t-147 -4h-486v317zM269 621v-210h264v-94h-264v-212h336q65 0 116.5 2.5t90.5 10t68 20.5t49 34q33 35 45 85t12 106
t-12 106t-45 85q-20 21 -49 34t-68 20.5t-90.5 10t-116.5 2.5h-336z" />
    <glyph glyph-name="Ntilde" unicode="&#xd1;" horiz-adv-x="1242" 
d="M235 726l735 -575v575h132v-726h-125l-735 575v-575h-132v726h125zM886 912q-26 -48 -68.5 -75t-95.5 -27q-31 0 -55 6t-50 17l-27 12q-42 19 -75 19q-34 0 -65 -15t-58 -41l-60 54q38 48 84 74.5t106 26.5q20 0 45 -6t50 -17l28 -13q20 -9 38.5 -17t39.5 -8q54 0 99 57z
" />
    <glyph glyph-name="Ograve" unicode="&#xd2;" horiz-adv-x="1274" 
d="M66 363q0 88 25 156t73 114q31 30 69.5 50t89.5 32.5t116.5 17.5t150.5 5h64q85 0 150.5 -5t116.5 -17.5t89.5 -32.5t69.5 -50q48 -46 73 -114t25 -156t-25 -156t-73 -114q-31 -30 -69.5 -50t-89.5 -32.5t-116.5 -17.5t-150.5 -5h-64q-85 0 -150.5 5t-116.5 17.5
t-89.5 32.5t-69.5 50q-48 46 -73 114t-25 156zM1031 363q0 57 -11.5 107t-45.5 85q-21 21 -50 34.5t-69 21t-91.5 10.5t-116.5 3h-50q-65 0 -116.5 -3t-91.5 -10.5t-69 -21t-50 -34.5q-34 -35 -45.5 -85t-11.5 -107t11.5 -107t45.5 -85q21 -21 50 -34.5t69 -21t91.5 -10.5
t116.5 -3h50q65 0 116.5 3t91.5 10.5t69 21t50 34.5q34 35 45.5 85t11.5 107zM713 805h-125l-191 185h180z" />
    <glyph glyph-name="Oacute" unicode="&#xd3;" horiz-adv-x="1274" 
d="M66 363q0 88 25 156t73 114q31 30 69.5 50t89.5 32.5t116.5 17.5t150.5 5h64q85 0 150.5 -5t116.5 -17.5t89.5 -32.5t69.5 -50q48 -46 73 -114t25 -156t-25 -156t-73 -114q-31 -30 -69.5 -50t-89.5 -32.5t-116.5 -17.5t-150.5 -5h-64q-85 0 -150.5 5t-116.5 17.5
t-89.5 32.5t-69.5 50q-48 46 -73 114t-25 156zM1031 363q0 57 -11.5 107t-45.5 85q-21 21 -50 34.5t-69 21t-91.5 10.5t-116.5 3h-50q-65 0 -116.5 -3t-91.5 -10.5t-69 -21t-50 -34.5q-34 -35 -45.5 -85t-11.5 -107t11.5 -107t45.5 -85q21 -21 50 -34.5t69 -21t91.5 -10.5
t116.5 -3h50q65 0 116.5 3t91.5 10.5t69 21t50 34.5q34 35 45.5 85t11.5 107zM674 990h180l-191 -185h-125z" />
    <glyph glyph-name="Ocircumflex" unicode="&#xd4;" horiz-adv-x="1274" 
d="M66 363q0 88 25 156t73 114q31 30 69.5 50t89.5 32.5t116.5 17.5t150.5 5h64q85 0 150.5 -5t116.5 -17.5t89.5 -32.5t69.5 -50q48 -46 73 -114t25 -156t-25 -156t-73 -114q-31 -30 -69.5 -50t-89.5 -32.5t-116.5 -17.5t-150.5 -5h-64q-85 0 -150.5 5t-116.5 17.5
t-89.5 32.5t-69.5 50q-48 46 -73 114t-25 156zM1031 363q0 57 -11.5 107t-45.5 85q-21 21 -50 34.5t-69 21t-91.5 10.5t-116.5 3h-50q-65 0 -116.5 -3t-91.5 -10.5t-69 -21t-50 -34.5q-34 -35 -45.5 -85t-11.5 -107t11.5 -107t45.5 -85q21 -21 50 -34.5t69 -21t91.5 -10.5
t116.5 -3h50q65 0 116.5 3t91.5 10.5t69 21t50 34.5q34 35 45.5 85t11.5 107zM513 791h-130l186 188h105l186 -188h-130l-104 99h-9z" />
    <glyph glyph-name="Otilde" unicode="&#xd5;" horiz-adv-x="1274" 
d="M66 363q0 88 25 156t73 114q31 30 69.5 50t89.5 32.5t116.5 17.5t150.5 5h64q85 0 150.5 -5t116.5 -17.5t89.5 -32.5t69.5 -50q48 -46 73 -114t25 -156t-25 -156t-73 -114q-31 -30 -69.5 -50t-89.5 -32.5t-116.5 -17.5t-150.5 -5h-64q-85 0 -150.5 5t-116.5 17.5
t-89.5 32.5t-69.5 50q-48 46 -73 114t-25 156zM1031 363q0 57 -11.5 107t-45.5 85q-21 21 -50 34.5t-69 21t-91.5 10.5t-116.5 3h-50q-65 0 -116.5 -3t-91.5 -10.5t-69 -21t-50 -34.5q-34 -35 -45.5 -85t-11.5 -107t11.5 -107t45.5 -85q21 -21 50 -34.5t69 -21t91.5 -10.5
t116.5 -3h50q65 0 116.5 3t91.5 10.5t69 21t50 34.5q34 35 45.5 85t11.5 107zM899 912q-26 -48 -68.5 -75t-95.5 -27q-31 0 -55 6t-50 17l-27 12q-42 19 -75 19q-34 0 -65 -15t-58 -41l-60 54q38 48 84 74.5t106 26.5q20 0 45 -6t50 -17l28 -13q20 -9 38.5 -17t39.5 -8
q54 0 99 57z" />
    <glyph glyph-name="Odieresis" unicode="&#xd6;" horiz-adv-x="1274" 
d="M66 363q0 88 25 156t73 114q31 30 69.5 50t89.5 32.5t116.5 17.5t150.5 5h64q85 0 150.5 -5t116.5 -17.5t89.5 -32.5t69.5 -50q48 -46 73 -114t25 -156t-25 -156t-73 -114q-31 -30 -69.5 -50t-89.5 -32.5t-116.5 -17.5t-150.5 -5h-64q-85 0 -150.5 5t-116.5 17.5
t-89.5 32.5t-69.5 50q-48 46 -73 114t-25 156zM1031 363q0 57 -11.5 107t-45.5 85q-21 21 -50 34.5t-69 21t-91.5 10.5t-116.5 3h-50q-65 0 -116.5 -3t-91.5 -10.5t-69 -21t-50 -34.5q-34 -35 -45.5 -85t-11.5 -107t11.5 -107t45.5 -85q21 -21 50 -34.5t69 -21t91.5 -10.5
t116.5 -3h50q65 0 116.5 3t91.5 10.5t69 21t50 34.5q34 35 45.5 85t11.5 107zM481 949q33 0 56 -17t23 -55v-4q0 -38 -23 -55t-56 -17h-11q-35 0 -57 17t-22 55v4q0 38 22 55t57 17h11zM774 949q33 0 56 -17t23 -55v-4q0 -38 -23 -55t-56 -17h-11q-35 0 -57 17t-22 55v4
q0 38 22 55t57 17h11z" />
    <glyph glyph-name="multiply" unicode="&#xd7;" horiz-adv-x="830" 
d="M715 99l-82 -70l-234 186l-232 -187l-82 68l227 188l-225 184l82 72l233 -187l229 186l80 -72l-223 -185z" />
    <glyph glyph-name="Oslash" unicode="&#xd8;" horiz-adv-x="1273" 
d="M66 363q0 88 25 156t73 114q31 30 69.5 50t89.5 32.5t116.5 17.5t150.5 5h64q75 0 135 -4t108 -13.5t85.5 -25t67.5 -37.5l147 87l47 -67l-134 -80q68 -89 68 -235q0 -88 -25 -156t-73 -114q-31 -30 -69.5 -50t-89.5 -32.5t-116.5 -17.5t-150.5 -5h-64q-72 0 -130.5 3.5
t-105 12t-83.5 22.5t-67 34l-135 -80l-51 67l122 72q-74 91 -74 244zM213 363q0 -51 8.5 -96t34.5 -80l674 400q-45 23 -113 30t-170 7h-50q-65 0 -116.5 -3t-91.5 -10.5t-69 -21t-50 -34.5q-34 -35 -45.5 -85t-11.5 -107zM1031 363q0 48 -8 90.5t-29 75.5l-668 -396
q45 -19 110.5 -25t160.5 -6h50q65 0 116.5 3t91.5 10.5t69 21t50 34.5q34 35 45.5 85t11.5 107z" />
    <glyph glyph-name="Ugrave" unicode="&#xd9;" horiz-adv-x="1189" 
d="M1065 276q0 -69 -16.5 -113t-50.5 -77q-54 -53 -153 -75.5t-246 -22.5h-39q-147 0 -246 22.5t-153 75.5q-34 33 -50.5 77t-16.5 113v450h138v-424q0 -51 9 -84t35 -56q34 -32 103.5 -47.5t188.5 -15.5h24q119 0 188 15.5t104 47.5q26 23 35 56t9 84v424h137v-450z
M687 805h-125l-191 185h180z" />
    <glyph glyph-name="Uacute" unicode="&#xda;" horiz-adv-x="1189" 
d="M1065 276q0 -69 -16.5 -113t-50.5 -77q-54 -53 -153 -75.5t-246 -22.5h-39q-147 0 -246 22.5t-153 75.5q-34 33 -50.5 77t-16.5 113v450h138v-424q0 -51 9 -84t35 -56q34 -32 103.5 -47.5t188.5 -15.5h24q119 0 188 15.5t104 47.5q26 23 35 56t9 84v424h137v-450z
M618 990h180l-191 -185h-125z" />
    <glyph glyph-name="Ucircumflex" unicode="&#xdb;" horiz-adv-x="1189" 
d="M1065 276q0 -69 -16.5 -113t-50.5 -77q-54 -53 -153 -75.5t-246 -22.5h-39q-147 0 -246 22.5t-153 75.5q-34 33 -50.5 77t-16.5 113v450h138v-424q0 -51 9 -84t35 -56q34 -32 103.5 -47.5t188.5 -15.5h24q119 0 188 15.5t104 47.5q26 23 35 56t9 84v424h137v-450z
M472 791h-130l186 188h105l186 -188h-130l-104 99h-9z" />
    <glyph glyph-name="Udieresis" unicode="&#xdc;" horiz-adv-x="1189" 
d="M1065 276q0 -69 -16.5 -113t-50.5 -77q-54 -53 -153 -75.5t-246 -22.5h-39q-147 0 -246 22.5t-153 75.5q-34 33 -50.5 77t-16.5 113v450h138v-424q0 -51 9 -84t35 -56q34 -32 103.5 -47.5t188.5 -15.5h24q119 0 188 15.5t104 47.5q26 23 35 56t9 84v424h137v-450z
M438 949q33 0 56 -17t23 -55v-4q0 -38 -23 -55t-56 -17h-11q-35 0 -57 17t-22 55v4q0 38 22 55t57 17h11zM731 949q33 0 56 -17t23 -55v-4q0 -38 -23 -55t-56 -17h-11q-35 0 -57 17t-22 55v4q0 38 22 55t57 17h11z" />
    <glyph glyph-name="Yacute" unicode="&#xdd;" horiz-adv-x="1143" 
d="M626 0h-140v255l-481 471h169l387 -381l385 381h162l-482 -474v-252zM612 990h180l-191 -185h-125z" />
    <glyph glyph-name="Thorn" unicode="&#xde;" horiz-adv-x="1124" 
d="M710 236q57 0 93 8.5t57 28.5q34 34 34 111t-34 111q-21 20 -57 28.5t-93 8.5h-461v-296h461zM249 131v-131h-139v726h139v-89h474q86 0 148.5 -17.5t102.5 -57.5q30 -30 46.5 -74t16.5 -104t-16.5 -104t-46.5 -74q-40 -40 -102.5 -57.5t-148.5 -17.5h-474z" />
    <glyph glyph-name="germandbls" unicode="&#xdf;" horiz-adv-x="1059" 
d="M325 0v102h381q71 0 104 25t33 86q0 54 -33 80t-106 26h-338v51v51h264q128 0 128 103q0 51 -29 75.5t-99 24.5h-421v-708h-130v810h539q46 0 80 -3.5t60 -10.5t45.5 -17.5t34.5 -24.5q25 -23 38 -53t13 -72q0 -22 -6.5 -44.5t-18.5 -42.5t-28.5 -36.5t-37.5 -25.5
q82 -7 129.5 -54.5t47.5 -124.5q0 -53 -14.5 -92.5t-46.5 -65.5q-39 -32 -97.5 -45.5t-153.5 -13.5h-338z" />
    <glyph glyph-name="agrave" unicode="&#xe0;" horiz-adv-x="905" 
d="M666 102v249h-313q-53 0 -84.5 -5.5t-52.5 -26.5q-16 -16 -23 -40.5t-7 -51.5t7 -51.5t23 -40.5q21 -21 52.5 -27t84.5 -6h313zM345 0q-79 0 -133 15.5t-92 49.5q-33 29 -49.5 71t-16.5 91t16.5 91t49.5 71q38 34 92 49t133 15h451v-453h-451zM561 545h-125l-191 185h180
z" />
    <glyph glyph-name="aacute" unicode="&#xe1;" horiz-adv-x="905" 
d="M666 102v249h-313q-53 0 -84.5 -5.5t-52.5 -26.5q-16 -16 -23 -40.5t-7 -51.5t7 -51.5t23 -40.5q21 -21 52.5 -27t84.5 -6h313zM345 0q-79 0 -133 15.5t-92 49.5q-33 29 -49.5 71t-16.5 91t16.5 91t49.5 71q38 34 92 49t133 15h451v-453h-451zM521 730h180l-191 -185
h-125z" />
    <glyph glyph-name="acircumflex" unicode="&#xe2;" horiz-adv-x="905" 
d="M666 102v249h-313q-53 0 -84.5 -5.5t-52.5 -26.5q-16 -16 -23 -40.5t-7 -51.5t7 -51.5t23 -40.5q21 -21 52.5 -27t84.5 -6h313zM345 0q-79 0 -133 15.5t-92 49.5q-33 29 -49.5 71t-16.5 91t16.5 91t49.5 71q38 34 92 49t133 15h451v-453h-451zM348 531h-130l186 188h105
l186 -188h-130l-104 99h-9z" />
    <glyph glyph-name="atilde" unicode="&#xe3;" horiz-adv-x="905" 
d="M666 102v249h-313q-53 0 -84.5 -5.5t-52.5 -26.5q-16 -16 -23 -40.5t-7 -51.5t7 -51.5t23 -40.5q21 -21 52.5 -27t84.5 -6h313zM345 0q-79 0 -133 15.5t-92 49.5q-33 29 -49.5 71t-16.5 91t16.5 91t49.5 71q38 34 92 49t133 15h451v-453h-451zM729 652q-26 -48 -68.5 -75
t-95.5 -27q-31 0 -55 6t-50 17l-27 12q-42 19 -75 19q-34 0 -65 -15t-58 -41l-60 54q38 48 84 74.5t106 26.5q20 0 45 -6t50 -17l28 -13q20 -9 38.5 -17t39.5 -8q54 0 99 57z" />
    <glyph glyph-name="adieresis" unicode="&#xe4;" horiz-adv-x="905" 
d="M666 102v249h-313q-53 0 -84.5 -5.5t-52.5 -26.5q-16 -16 -23 -40.5t-7 -51.5t7 -51.5t23 -40.5q21 -21 52.5 -27t84.5 -6h313zM345 0q-79 0 -133 15.5t-92 49.5q-33 29 -49.5 71t-16.5 91t16.5 91t49.5 71q38 34 92 49t133 15h451v-453h-451zM316 690q33 0 56 -17
t23 -55v-4q0 -38 -23 -55t-56 -17h-11q-35 0 -57 17t-22 55v4q0 38 22 55t57 17h11zM609 690q33 0 56 -17t23 -55v-4q0 -38 -23 -55t-56 -17h-11q-35 0 -57 17t-22 55v4q0 38 22 55t57 17h11z" />
    <glyph glyph-name="aring" unicode="&#xe5;" horiz-adv-x="905" 
d="M666 102v249h-313q-53 0 -84.5 -5.5t-52.5 -26.5q-16 -16 -23 -40.5t-7 -51.5t7 -51.5t23 -40.5q21 -21 52.5 -27t84.5 -6h313zM345 0q-79 0 -133 15.5t-92 49.5q-33 29 -49.5 71t-16.5 91t16.5 91t49.5 71q38 34 92 49t133 15h451v-453h-451zM467 596q30 0 51.5 8.5
t21.5 39.5q0 29 -21.5 38.5t-51.5 9.5h-12q-30 0 -51.5 -8.5t-21.5 -39.5q0 -29 21.5 -38.5t51.5 -9.5h12zM436 536q-26 0 -50 6t-42 19t-28.5 33.5t-10.5 49.5q0 27 10.5 47.5t28 34t41.5 20t51 6.5h50q25 0 49 -6t42 -19t29 -33.5t11 -49.5q0 -28 -10.5 -48t-28 -33.5
t-41.5 -20t-51 -6.5h-50z" />
    <glyph glyph-name="ae" unicode="&#xe6;" horiz-adv-x="1424" 
d="M461 100q79 0 117 18t47 64v3h-365q-24 0 -39 -1t-24 -5q-19 -9 -19 -32q0 -26 35 -38q20 -7 51.5 -8t75.5 -1h121zM687 71q-23 -32 -80 -51.5t-148 -19.5h-133q-59 0 -110 6.5t-89 23t-59.5 44.5t-21.5 72q0 42 18.5 69.5t60.5 41.5q27 9 64.5 12.5t87.5 3.5h348
q-3 17 -9.5 27t-17.5 21q-21 21 -53 26.5t-85 5.5h-365v100h375q87 0 141 -16t86 -55q34 36 88 53.5t138 17.5h113q79 0 138 -16.5t97 -51.5q32 -30 48.5 -73.5t16.5 -97.5v-34h-579q5 -38 29 -56q18 -14 49.5 -19t86.5 -5h375v-100h-385q-91 0 -147.5 19t-77.5 52zM921 353
q-41 0 -67 -3.5t-44 -11.5q-44 -20 -51 -70h445q-5 25 -16 41t-30 26t-47.5 14t-68.5 4h-121z" />
    <glyph glyph-name="ccedilla" unicode="&#xe7;" horiz-adv-x="816" 
d="M354 0h-9q-79 0 -133 15.5t-92 49.5q-33 29 -49.5 71t-16.5 91t16.5 91t49.5 71q38 34 92 49t133 15h389v-102h-381q-53 0 -84.5 -5.5t-52.5 -26.5q-16 -16 -23 -40.5t-7 -51.5t7 -51.5t23 -40.5q21 -21 52.5 -27t84.5 -6h381v-102h-296l-10 -53h70q78 0 118.5 -31.5
t40.5 -88.5q0 -66 -44.5 -101t-138.5 -35h-201v83h201q41 0 54.5 11.5t13.5 33.5q0 27 -15.5 36t-48.5 9h-151z" />
    <glyph glyph-name="egrave" unicode="&#xe8;" horiz-adv-x="856" 
d="M768 180h-579q5 -38 29 -56q18 -14 49.5 -19t86.5 -5h375v-100h-385q-65 0 -123.5 10t-100.5 43q-30 24 -48 63t-18 98q0 54 16.5 97.5t48.5 73.5q38 35 95 51.5t141 16.5h113q79 0 138 -16.5t97 -51.5q32 -30 48.5 -73.5t16.5 -97.5v-34zM353 353q-41 0 -67 -3.5
t-44 -11.5q-44 -20 -51 -70h445q-5 25 -16 41t-30 26t-47.5 14t-68.5 4h-121zM513 545h-125l-191 185h180z" />
    <glyph glyph-name="eacute" unicode="&#xe9;" horiz-adv-x="856" 
d="M768 180h-579q5 -38 29 -56q18 -14 49.5 -19t86.5 -5h375v-100h-385q-65 0 -123.5 10t-100.5 43q-30 24 -48 63t-18 98q0 54 16.5 97.5t48.5 73.5q38 35 95 51.5t141 16.5h113q79 0 138 -16.5t97 -51.5q32 -30 48.5 -73.5t16.5 -97.5v-34zM353 353q-41 0 -67 -3.5
t-44 -11.5q-44 -20 -51 -70h445q-5 25 -16 41t-30 26t-47.5 14t-68.5 4h-121zM462 730h180l-191 -185h-125z" />
    <glyph glyph-name="ecircumflex" unicode="&#xea;" horiz-adv-x="856" 
d="M768 180h-579q5 -38 29 -56q18 -14 49.5 -19t86.5 -5h375v-100h-385q-65 0 -123.5 10t-100.5 43q-30 24 -48 63t-18 98q0 54 16.5 97.5t48.5 73.5q38 35 95 51.5t141 16.5h113q79 0 138 -16.5t97 -51.5q32 -30 48.5 -73.5t16.5 -97.5v-34zM353 353q-41 0 -67 -3.5
t-44 -11.5q-44 -20 -51 -70h445q-5 25 -16 41t-30 26t-47.5 14t-68.5 4h-121zM302 531h-130l186 188h105l186 -188h-130l-104 99h-9z" />
    <glyph glyph-name="edieresis" unicode="&#xeb;" horiz-adv-x="856" 
d="M768 180h-579q5 -38 29 -56q18 -14 49.5 -19t86.5 -5h375v-100h-385q-65 0 -123.5 10t-100.5 43q-30 24 -48 63t-18 98q0 54 16.5 97.5t48.5 73.5q38 35 95 51.5t141 16.5h113q79 0 138 -16.5t97 -51.5q32 -30 48.5 -73.5t16.5 -97.5v-34zM353 353q-41 0 -67 -3.5
t-44 -11.5q-44 -20 -51 -70h445q-5 25 -16 41t-30 26t-47.5 14t-68.5 4h-121zM269 690q33 0 56 -17t23 -55v-4q0 -38 -23 -55t-56 -17h-11q-35 0 -57 17t-22 55v4q0 38 22 55t57 17h11zM562 690q33 0 56 -17t23 -55v-4q0 -38 -23 -55t-56 -17h-11q-35 0 -57 17t-22 55v4
q0 38 22 55t57 17h11z" />
    <glyph glyph-name="igrave" unicode="&#xec;" horiz-adv-x="322" 
d="M211 0h-130v453h130v-453zM223 545h-125l-191 185h180z" />
    <glyph glyph-name="iacute" unicode="&#xed;" horiz-adv-x="322" 
d="M211 0h-130v453h130v-453zM204 730h180l-191 -185h-125z" />
    <glyph glyph-name="icircumflex" unicode="&#xee;" horiz-adv-x="322" 
d="M211 0h-130v453h130v-453zM38 531h-130l186 188h105l186 -188h-130l-104 99h-9z" />
    <glyph glyph-name="idieresis" unicode="&#xef;" horiz-adv-x="322" 
d="M211 0h-130v453h130v-453zM5 690q33 0 56 -17t23 -55v-4q0 -38 -23 -55t-56 -17h-11q-35 0 -57 17t-22 55v4q0 38 22 55t57 17h11zM298 690q33 0 56 -17t23 -55v-4q0 -38 -23 -55t-56 -17h-11q-35 0 -57 17t-22 55v4q0 38 22 55t57 17h11z" />
    <glyph glyph-name="eth" unicode="&#xf0;" horiz-adv-x="904" 
d="M605 713q37 -8 63.5 -20t48.5 -29q46 -35 62.5 -100t16.5 -174v-166q0 -53 -14.5 -95t-46 -70.5t-81.5 -43.5t-122 -15h-187q-79 0 -133 15.5t-92 49.5q-33 29 -49.5 71t-16.5 91t16.5 91t49.5 71q38 34 92 49t133 15h321v13q0 49 -10 76.5t-38 48.5q-18 13 -44 20
l-27 -91l-80 23l24 79q-14 1 -30 1.5t-33 0.5h-87v102h97q47 0 83 -3l26 85l80 -24zM525 102q73 0 107 30t34 96v123h-313q-53 0 -84.5 -5.5t-52.5 -26.5q-16 -16 -23 -40.5t-7 -51.5t7 -51.5t23 -40.5q21 -21 52.5 -27t84.5 -6h172z" />
    <glyph glyph-name="ntilde" unicode="&#xf1;" 
d="M79 0v453h453q72 0 119 -14t77 -43q26 -25 38.5 -60.5t12.5 -86.5v-249h-130v234q0 61 -26 87q-17 16 -47 23t-73 7h-294v-351h-130zM694 652q-26 -48 -68.5 -75t-95.5 -27q-31 0 -55 6t-50 17l-27 12q-42 19 -75 19q-34 0 -65 -15t-58 -41l-60 54q38 48 84 74.5
t106 26.5q20 0 45 -6t50 -17l28 -13q20 -9 38.5 -17t39.5 -8q54 0 99 57z" />
    <glyph glyph-name="ograve" unicode="&#xf2;" horiz-adv-x="897" 
d="M352 0q-160 0 -233 66q-32 29 -48.5 68t-16.5 92q0 101 65 160q74 67 233 67h163q159 0 233 -67q65 -59 65 -160q0 -53 -16.5 -92t-48.5 -68q-73 -66 -233 -66h-163zM361 351q-51 0 -87 -7.5t-57 -27.5q-17 -16 -24 -35.5t-7 -54.5t7 -54.5t24 -35.5q21 -20 57 -27t87 -7
h145q51 0 87 7t57 27q17 16 24 35.5t7 54.5t-7 54.5t-24 35.5q-21 20 -57 27.5t-87 7.5h-145zM522 545h-125l-191 185h180z" />
    <glyph glyph-name="oacute" unicode="&#xf3;" horiz-adv-x="897" 
d="M352 0q-160 0 -233 66q-32 29 -48.5 68t-16.5 92q0 101 65 160q74 67 233 67h163q159 0 233 -67q65 -59 65 -160q0 -53 -16.5 -92t-48.5 -68q-73 -66 -233 -66h-163zM361 351q-51 0 -87 -7.5t-57 -27.5q-17 -16 -24 -35.5t-7 -54.5t7 -54.5t24 -35.5q21 -20 57 -27t87 -7
h145q51 0 87 7t57 27q17 16 24 35.5t7 54.5t-7 54.5t-24 35.5q-21 20 -57 27.5t-87 7.5h-145zM489 730h180l-191 -185h-125z" />
    <glyph glyph-name="ocircumflex" unicode="&#xf4;" horiz-adv-x="897" 
d="M352 0q-160 0 -233 66q-32 29 -48.5 68t-16.5 92q0 101 65 160q74 67 233 67h163q159 0 233 -67q65 -59 65 -160q0 -53 -16.5 -92t-48.5 -68q-73 -66 -233 -66h-163zM361 351q-51 0 -87 -7.5t-57 -27.5q-17 -16 -24 -35.5t-7 -54.5t7 -54.5t24 -35.5q21 -20 57 -27t87 -7
h145q51 0 87 7t57 27q17 16 24 35.5t7 54.5t-7 54.5t-24 35.5q-21 20 -57 27.5t-87 7.5h-145zM325 531h-130l186 188h105l186 -188h-130l-104 99h-9z" />
    <glyph glyph-name="otilde" unicode="&#xf5;" horiz-adv-x="897" 
d="M352 0q-160 0 -233 66q-32 29 -48.5 68t-16.5 92q0 101 65 160q74 67 233 67h163q159 0 233 -67q65 -59 65 -160q0 -53 -16.5 -92t-48.5 -68q-73 -66 -233 -66h-163zM361 351q-51 0 -87 -7.5t-57 -27.5q-17 -16 -24 -35.5t-7 -54.5t7 -54.5t24 -35.5q21 -20 57 -27t87 -7
h145q51 0 87 7t57 27q17 16 24 35.5t7 54.5t-7 54.5t-24 35.5q-21 20 -57 27.5t-87 7.5h-145zM711 652q-26 -48 -68.5 -75t-95.5 -27q-31 0 -55 6t-50 17l-27 12q-42 19 -75 19q-34 0 -65 -15t-58 -41l-60 54q38 48 84 74.5t106 26.5q20 0 45 -6t50 -17l28 -13
q20 -9 38.5 -17t39.5 -8q54 0 99 57z" />
    <glyph glyph-name="odieresis" unicode="&#xf6;" horiz-adv-x="897" 
d="M352 0q-160 0 -233 66q-32 29 -48.5 68t-16.5 92q0 101 65 160q74 67 233 67h163q159 0 233 -67q65 -59 65 -160q0 -53 -16.5 -92t-48.5 -68q-73 -66 -233 -66h-163zM361 351q-51 0 -87 -7.5t-57 -27.5q-17 -16 -24 -35.5t-7 -54.5t7 -54.5t24 -35.5q21 -20 57 -27t87 -7
h145q51 0 87 7t57 27q17 16 24 35.5t7 54.5t-7 54.5t-24 35.5q-21 20 -57 27.5t-87 7.5h-145zM292 690q33 0 56 -17t23 -55v-4q0 -38 -23 -55t-56 -17h-11q-35 0 -57 17t-22 55v4q0 38 22 55t57 17h11zM585 690q33 0 56 -17t23 -55v-4q0 -38 -23 -55t-56 -17h-11
q-35 0 -57 17t-22 55v4q0 38 22 55t57 17h11z" />
    <glyph glyph-name="divide" unicode="&#xf7;" horiz-adv-x="830" 
d="M61 233v104h679v-104h-679zM405 151q32 0 54 -16.5t22 -52.5v-4q0 -37 -22 -53t-54 -16h-11q-33 0 -54.5 16t-21.5 53v4q0 36 21.5 52.5t54.5 16.5h11zM405 562q32 0 54 -16.5t22 -52.5v-4q0 -37 -22 -53t-54 -16h-11q-33 0 -54.5 16t-21.5 53v4q0 36 21.5 52.5
t54.5 16.5h11z" />
    <glyph glyph-name="oslash" unicode="&#xf8;" horiz-adv-x="897" 
d="M352 0q-136 0 -208 47l-134 -65l-31 55l115 55q-40 52 -40 134q0 101 65 160q74 67 233 67h163q141 0 215 -53l132 64l30 -53l-116 -57q37 -50 37 -128q0 -53 -16.5 -92t-48.5 -68q-73 -66 -233 -66h-163zM361 351q-51 0 -87 -7.5t-57 -27.5q-17 -16 -24 -35.5t-7 -54.5
q0 -29 4.5 -47t15.5 -32l399 193q-20 6 -44.5 8.5t-54.5 2.5h-145zM681 226q0 26 -4 43t-13 31l-392 -191q35 -7 89 -7h145q51 0 87 7t57 27q17 16 24 35.5t7 54.5z" />
    <glyph glyph-name="ugrave" unicode="&#xf9;" 
d="M772 453v-453h-453q-72 0 -119 14t-77 43q-26 25 -38.5 60.5t-12.5 86.5v249h130v-234q0 -61 26 -87q17 -16 47 -23t73 -7h294v351h130zM516 545h-125l-191 185h180z" />
    <glyph glyph-name="uacute" unicode="&#xfa;" 
d="M772 453v-453h-453q-72 0 -119 14t-77 43q-26 25 -38.5 60.5t-12.5 86.5v249h130v-234q0 -61 26 -87q17 -16 47 -23t73 -7h294v351h130zM468 730h180l-191 -185h-125z" />
    <glyph glyph-name="ucircumflex" unicode="&#xfb;" 
d="M772 453v-453h-453q-72 0 -119 14t-77 43q-26 25 -38.5 60.5t-12.5 86.5v249h130v-234q0 -61 26 -87q17 -16 47 -23t73 -7h294v351h130zM317 531h-130l186 188h105l186 -188h-130l-104 99h-9z" />
    <glyph glyph-name="udieresis" unicode="&#xfc;" 
d="M772 453v-453h-453q-72 0 -119 14t-77 43q-26 25 -38.5 60.5t-12.5 86.5v249h130v-234q0 -61 26 -87q17 -16 47 -23t73 -7h294v351h130zM287 690q33 0 56 -17t23 -55v-4q0 -38 -23 -55t-56 -17h-11q-35 0 -57 17t-22 55v4q0 38 22 55t57 17h11zM580 690q33 0 56 -17
t23 -55v-4q0 -38 -23 -55t-56 -17h-11q-35 0 -57 17t-22 55v4q0 38 22 55t57 17h11z" />
    <glyph glyph-name="yacute" unicode="&#xfd;" 
d="M642 0h-323q-72 0 -119 14t-77 43q-26 25 -38.5 60.5t-12.5 86.5v249h130v-234q0 -61 26 -87q17 -16 47 -23t73 -7h294v351h130v-464q0 -114 -64 -171q-19 -17 -41 -28.5t-49.5 -19t-61 -11t-75.5 -3.5h-308v102h300q53 0 84.5 6t52.5 27q32 32 32 92v17zM472 730h180
l-191 -185h-125z" />
    <glyph glyph-name="thorn" unicode="&#xfe;" horiz-adv-x="905" 
d="M79 726h130v-273h321q79 0 133 -15.5t92 -49.5q33 -29 49.5 -71t16.5 -91t-16.5 -91t-49.5 -71q-38 -34 -92 -49t-133 -15h-321v-244h-130v970zM209 351v-249h313q53 0 84.5 5.5t52.5 26.5q16 16 23 40.5t7 51.5t-7 51.5t-23 40.5q-21 21 -52.5 27t-84.5 6h-313z" />
    <glyph glyph-name="ydieresis" unicode="&#xff;" 
d="M642 0h-323q-72 0 -119 14t-77 43q-26 25 -38.5 60.5t-12.5 86.5v249h130v-234q0 -61 26 -87q17 -16 47 -23t73 -7h294v351h130v-464q0 -114 -64 -171q-19 -17 -41 -28.5t-49.5 -19t-61 -11t-75.5 -3.5h-308v102h300q53 0 84.5 6t52.5 27q32 32 32 92v17zM284 690
q33 0 56 -17t23 -55v-4q0 -38 -23 -55t-56 -17h-11q-35 0 -57 17t-22 55v4q0 38 22 55t57 17h11zM577 690q33 0 56 -17t23 -55v-4q0 -38 -23 -55t-56 -17h-11q-35 0 -57 17t-22 55v4q0 38 22 55t57 17h11z" />
    <glyph glyph-name="Amacron" unicode="&#x100;" horiz-adv-x="1183" 
d="M882 140h-613l-93 -140h-156l493 726h124l496 -726h-157zM340 246h471l-236 351zM319 932h514v-90h-514v90z" />
    <glyph glyph-name="amacron" unicode="&#x101;" horiz-adv-x="905" 
d="M666 102v249h-313q-53 0 -84.5 -5.5t-52.5 -26.5q-16 -16 -23 -40.5t-7 -51.5t7 -51.5t23 -40.5q21 -21 52.5 -27t84.5 -6h313zM345 0q-79 0 -133 15.5t-92 49.5q-33 29 -49.5 71t-16.5 91t16.5 91t49.5 71q38 34 92 49t133 15h451v-453h-451zM204 674h514v-90h-514v90z
" />
    <glyph glyph-name="Abreve" unicode="&#x102;" horiz-adv-x="1183" 
d="M882 140h-613l-93 -140h-156l493 726h124l496 -726h-157zM340 246h471l-236 351zM568 813q-95 0 -154.5 42t-70.5 129h100q5 -41 37.5 -65t92.5 -24h7q60 0 92.5 24t37.5 65h100q-11 -87 -71 -129t-154 -42h-17z" />
    <glyph glyph-name="abreve" unicode="&#x103;" horiz-adv-x="905" 
d="M666 102v249h-313q-53 0 -84.5 -5.5t-52.5 -26.5q-16 -16 -23 -40.5t-7 -51.5t7 -51.5t23 -40.5q21 -21 52.5 -27t84.5 -6h313zM345 0q-79 0 -133 15.5t-92 49.5q-33 29 -49.5 71t-16.5 91t16.5 91t49.5 71q38 34 92 49t133 15h451v-453h-451zM457 553q-95 0 -154.5 42
t-70.5 129h100q5 -41 37.5 -65t92.5 -24h7q60 0 92.5 24t37.5 65h100q-11 -87 -71 -129t-154 -42h-17z" />
    <glyph glyph-name="Aogonek" unicode="&#x104;" horiz-adv-x="1183" 
d="M863 -187q0 47 26.5 94.5t89.5 89.5l-97 143h-613l-93 -140h-156l493 726h124l496 -726q-78 -38 -119.5 -84.5t-41.5 -86.5q0 -20 14 -35.5t59 -15.5h74v-87h-74q-98 0 -140 31.5t-42 90.5zM340 246h471l-236 351z" />
    <glyph glyph-name="aogonek" unicode="&#x105;" horiz-adv-x="905" 
d="M796 0q-74 -35 -111.5 -81.5t-37.5 -89.5q0 -20 14 -35.5t59 -15.5h74v-87h-74q-89 0 -132.5 30t-43.5 96q0 47 31 96t96 87h-326q-79 0 -133 15.5t-92 49.5q-33 29 -49.5 71t-16.5 91t16.5 91t49.5 71q38 34 92 49t133 15h451v-453zM666 102v249h-313q-53 0 -84.5 -5.5
t-52.5 -26.5q-16 -16 -23 -40.5t-7 -51.5t7 -51.5t23 -40.5q21 -21 52.5 -27t84.5 -6h313z" />
    <glyph glyph-name="Cacute" unicode="&#x106;" horiz-adv-x="1053" 
d="M957 106v-106h-374q-83 0 -147 4t-114 15t-88 29t-69 47q-49 45 -74 111t-25 157t25 157t74 111q31 28 69 46.5t88 29.5t114 15t147 4h374v-106h-363q-65 0 -116.5 -2.5t-90.5 -9.5t-68 -20t-49 -34q-33 -35 -45 -85t-12 -106t12 -106t45 -85q20 -21 49 -34t68 -20
t90.5 -9.5t116.5 -2.5h363zM624 990h180l-191 -185h-125z" />
    <glyph glyph-name="cacute" unicode="&#x107;" horiz-adv-x="816" 
d="M734 0h-389q-79 0 -133 15.5t-92 49.5q-33 29 -49.5 71t-16.5 91t16.5 91t49.5 71q38 34 92 49t133 15h389v-102h-381q-53 0 -84.5 -5.5t-52.5 -26.5q-16 -16 -23 -40.5t-7 -51.5t7 -51.5t23 -40.5q21 -21 52.5 -27t84.5 -6h381v-102zM480 730h180l-191 -185h-125z" />
    <glyph glyph-name="Ccircumflex" unicode="&#x108;" horiz-adv-x="1053" 
d="M957 106v-106h-374q-83 0 -147 4t-114 15t-88 29t-69 47q-49 45 -74 111t-25 157t25 157t74 111q31 28 69 46.5t88 29.5t114 15t147 4h374v-106h-363q-65 0 -116.5 -2.5t-90.5 -9.5t-68 -20t-49 -34q-33 -35 -45 -85t-12 -106t12 -106t45 -85q20 -21 49 -34t68 -20
t90.5 -9.5t116.5 -2.5h363zM476 791h-130l186 188h105l186 -188h-130l-104 99h-9z" />
    <glyph glyph-name="ccircumflex" unicode="&#x109;" horiz-adv-x="816" 
d="M734 0h-389q-79 0 -133 15.5t-92 49.5q-33 29 -49.5 71t-16.5 91t16.5 91t49.5 71q38 34 92 49t133 15h389v-102h-381q-53 0 -84.5 -5.5t-52.5 -26.5q-16 -16 -23 -40.5t-7 -51.5t7 -51.5t23 -40.5q21 -21 52.5 -27t84.5 -6h381v-102zM324 531h-130l186 188h105l186 -188
h-130l-104 99h-9z" />
    <glyph glyph-name="Cdotaccent" unicode="&#x10a;" horiz-adv-x="1053" 
d="M957 106v-106h-374q-83 0 -147 4t-114 15t-88 29t-69 47q-49 45 -74 111t-25 157t25 157t74 111q31 28 69 46.5t88 29.5t114 15t147 4h374v-106h-363q-65 0 -116.5 -2.5t-90.5 -9.5t-68 -20t-49 -34q-33 -35 -45 -85t-12 -106t12 -106t45 -85q20 -21 49 -34t68 -20
t90.5 -9.5t116.5 -2.5h363zM598 978q35 0 59.5 -18t24.5 -58v-4q0 -41 -24.5 -58.5t-59.5 -17.5h-11q-37 0 -60.5 17.5t-23.5 58.5v4q0 40 23.5 58t60.5 18h11z" />
    <glyph glyph-name="cdotaccent" unicode="&#x10b;" horiz-adv-x="816" 
d="M734 0h-389q-79 0 -133 15.5t-92 49.5q-33 29 -49.5 71t-16.5 91t16.5 91t49.5 71q38 34 92 49t133 15h389v-102h-381q-53 0 -84.5 -5.5t-52.5 -26.5q-16 -16 -23 -40.5t-7 -51.5t7 -51.5t23 -40.5q21 -21 52.5 -27t84.5 -6h381v-102zM443 713q33 0 56 -17t23 -55v-4
q0 -38 -23 -55t-56 -17h-11q-35 0 -57 17t-22 55v4q0 38 22 55t57 17h11z" />
    <glyph glyph-name="Ccaron" unicode="&#x10c;" horiz-adv-x="1053" 
d="M957 106v-106h-374q-83 0 -147 4t-114 15t-88 29t-69 47q-49 45 -74 111t-25 157t25 157t74 111q31 28 69 46.5t88 29.5t114 15t147 4h374v-106h-363q-65 0 -116.5 -2.5t-90.5 -9.5t-68 -20t-49 -34q-33 -35 -45 -85t-12 -106t12 -106t45 -85q20 -21 49 -34t68 -20
t90.5 -9.5t116.5 -2.5h363zM482 987.032h-130l186 -187.988h105l186 187.988h-130l-104 -98.9941h-9z" />
    <glyph glyph-name="ccaron" unicode="&#x10d;" horiz-adv-x="816" 
d="M734 0h-389q-79 0 -133 15.5t-92 49.5q-33 29 -49.5 71t-16.5 91t16.5 91t49.5 71q38 34 92 49t133 15h389v-102h-381q-53 0 -84.5 -5.5t-52.5 -26.5q-16 -16 -23 -40.5t-7 -51.5t7 -51.5t23 -40.5q21 -21 52.5 -27t84.5 -6h381v-102zM318 727.032h-130l186 -187.988h105
l186 187.988h-130l-104 -98.9941h-9z" />
    <glyph glyph-name="Dcaron" unicode="&#x10e;" horiz-adv-x="1209" 
d="M110 726h486q83 0 147 -4t114 -15t88 -29.5t69 -46.5q49 -45 74 -111t25 -157t-25 -157t-74 -111q-31 -29 -69 -47t-88 -29t-114 -15t-147 -4h-486v726zM249 621v-516h336q65 0 116.5 2.5t90.5 10t68 20.5t49 34q33 35 45 85t12 106t-12 106t-45 85q-20 21 -49 34
t-68 20.5t-90.5 10t-116.5 2.5h-336zM464 987.032h-130l186 -187.988h105l186 187.988h-130l-104 -98.9941h-9z" />
    <glyph glyph-name="dcaron" unicode="&#x10f;" horiz-adv-x="1008" 
d="M904 726h134l-75 -247h-95zM666 102v249h-313q-53 0 -84.5 -5.5t-52.5 -26.5q-16 -16 -23 -40.5t-7 -51.5t7 -51.5t23 -40.5q21 -21 52.5 -27t84.5 -6h313zM345 0q-79 0 -133 15.5t-92 49.5q-33 29 -49.5 71t-16.5 91t16.5 91t49.5 71q38 34 92 49t133 15h321v273h130
v-726h-451z" />
    <glyph glyph-name="Dcroat" unicode="&#x110;" horiz-adv-x="1229" 
d="M130 317h-143v94h143v315h486q83 0 147 -4t114 -15t88 -29.5t69 -46.5q49 -45 74 -111t25 -157t-25 -157t-74 -111q-31 -29 -69 -47t-88 -29t-114 -15t-147 -4h-486v317zM269 621v-210h264v-94h-264v-212h336q65 0 116.5 2.5t90.5 10t68 20.5t49 34q33 35 45 85t12 106
t-12 106t-45 85q-20 21 -49 34t-68 20.5t-90.5 10t-116.5 2.5h-336z" />
    <glyph glyph-name="dcroat" unicode="&#x111;" horiz-adv-x="908" 
d="M345 0q-79 0 -133 15.5t-92 49.5q-33 29 -49.5 71t-16.5 91t16.5 91t49.5 71q38 34 92 49t133 15h321v93h-237v88h237v92h130v-92h113v-88h-113v-546h-451zM666 102v249h-313q-53 0 -84.5 -5.5t-52.5 -26.5q-16 -16 -23 -40.5t-7 -51.5t7 -51.5t23 -40.5q21 -21 52.5 -27
t84.5 -6h313z" />
    <glyph glyph-name="Emacron" unicode="&#x112;" horiz-adv-x="1038" 
d="M948 0h-838v726h834v-105h-695v-199h473v-103h-473v-214h699v-105zM267 932h514v-90h-514v90z" />
    <glyph glyph-name="emacron" unicode="&#x113;" horiz-adv-x="856" 
d="M768 180h-579q5 -38 29 -56q18 -14 49.5 -19t86.5 -5h375v-100h-385q-65 0 -123.5 10t-100.5 43q-30 24 -48 63t-18 98q0 54 16.5 97.5t48.5 73.5q38 35 95 51.5t141 16.5h113q79 0 138 -16.5t97 -51.5q32 -30 48.5 -73.5t16.5 -97.5v-34zM353 353q-41 0 -67 -3.5
t-44 -11.5q-44 -20 -51 -70h445q-5 25 -16 41t-30 26t-47.5 14t-68.5 4h-121zM161 674h514v-90h-514v90z" />
    <glyph glyph-name="Ebreve" unicode="&#x114;" horiz-adv-x="1038" 
d="M948 0h-838v726h834v-105h-695v-199h473v-103h-473v-214h699v-105zM515 813q-95 0 -154.5 42t-70.5 129h100q5 -41 37.5 -65t92.5 -24h7q60 0 92.5 24t37.5 65h100q-11 -87 -71 -129t-154 -42h-17z" />
    <glyph glyph-name="ebreve" unicode="&#x115;" horiz-adv-x="856" 
d="M768 180h-579q5 -38 29 -56q18 -14 49.5 -19t86.5 -5h375v-100h-385q-65 0 -123.5 10t-100.5 43q-30 24 -48 63t-18 98q0 54 16.5 97.5t48.5 73.5q38 35 95 51.5t141 16.5h113q79 0 138 -16.5t97 -51.5q32 -30 48.5 -73.5t16.5 -97.5v-34zM353 353q-41 0 -67 -3.5
t-44 -11.5q-44 -20 -51 -70h445q-5 25 -16 41t-30 26t-47.5 14t-68.5 4h-121zM407 553q-95 0 -154.5 42t-70.5 129h100q5 -41 37.5 -65t92.5 -24h7q60 0 92.5 24t37.5 65h100q-11 -87 -71 -129t-154 -42h-17z" />
    <glyph glyph-name="Edotaccent" unicode="&#x116;" horiz-adv-x="1038" 
d="M948 0h-838v726h834v-105h-695v-199h473v-103h-473v-214h699v-105zM528 978q35 0 59.5 -18t24.5 -58v-4q0 -41 -24.5 -58.5t-59.5 -17.5h-11q-37 0 -60.5 17.5t-23.5 58.5v4q0 40 23.5 58t60.5 18h11z" />
    <glyph glyph-name="edotaccent" unicode="&#x117;" horiz-adv-x="856" 
d="M768 180h-579q5 -38 29 -56q18 -14 49.5 -19t86.5 -5h375v-100h-385q-65 0 -123.5 10t-100.5 43q-30 24 -48 63t-18 98q0 54 16.5 97.5t48.5 73.5q38 35 95 51.5t141 16.5h113q79 0 138 -16.5t97 -51.5q32 -30 48.5 -73.5t16.5 -97.5v-34zM353 353q-41 0 -67 -3.5
t-44 -11.5q-44 -20 -51 -70h445q-5 25 -16 41t-30 26t-47.5 14t-68.5 4h-121zM428 713q33 0 56 -17t23 -55v-4q0 -38 -23 -55t-56 -17h-11q-35 0 -57 17t-22 55v4q0 38 22 55t57 17h11z" />
    <glyph glyph-name="Eogonek" unicode="&#x118;" horiz-adv-x="1038" 
d="M948 2q-78 -42 -121.5 -87.5t-43.5 -85.5q0 -20 14 -35.5t59 -15.5h74v-87h-74q-176 0 -176 117q0 24 9.5 51t28.5 52.5t46.5 48.5t63.5 40h-718v726h834v-105h-695v-199h473v-103h-473v-214h699v-103z" />
    <glyph glyph-name="eogonek" unicode="&#x119;" horiz-adv-x="856" 
d="M729 3q-81 -39 -121 -86.5t-40 -87.5q0 -20 14 -35.5t59 -15.5h74v-87h-74q-98 0 -140 31.5t-42 90.5q0 47 32.5 98.5t95.5 88.5h-243q-65 0 -123.5 10t-100.5 43q-30 24 -48 63t-18 98q0 54 16.5 97.5t48.5 73.5q38 35 95 51.5t141 16.5h113q79 0 138 -16.5t97 -51.5
q32 -30 48.5 -73.5t16.5 -97.5v-34h-579q5 -38 29 -56q18 -14 49.5 -19t86.5 -5h375v-97zM353 353q-41 0 -67 -3.5t-44 -11.5q-44 -20 -51 -70h445q-5 25 -16 41t-30 26t-47.5 14t-68.5 4h-121z" />
    <glyph glyph-name="Ecaron" unicode="&#x11a;" horiz-adv-x="1038" 
d="M948 0h-838v726h834v-105h-695v-199h473v-103h-473v-214h699v-105zM435 987.032h-130l186 -187.988h105l186 187.988h-130l-104 -98.9941h-9z" />
    <glyph glyph-name="ecaron" unicode="&#x11b;" horiz-adv-x="856" 
d="M768 180h-579q5 -38 29 -56q18 -14 49.5 -19t86.5 -5h375v-100h-385q-65 0 -123.5 10t-100.5 43q-30 24 -48 63t-18 98q0 54 16.5 97.5t48.5 73.5q38 35 95 51.5t141 16.5h113q79 0 138 -16.5t97 -51.5q32 -30 48.5 -73.5t16.5 -97.5v-34zM353 353q-41 0 -67 -3.5
t-44 -11.5q-44 -20 -51 -70h445q-5 25 -16 41t-30 26t-47.5 14t-68.5 4h-121zM304 727.032h-130l186 -187.988h105l186 187.988h-130l-104 -98.9941h-9z" />
    <glyph glyph-name="Gcircumflex" unicode="&#x11c;" horiz-adv-x="1156" 
d="M897 106v241h135v-347h-449q-83 0 -147 4t-114 15t-88 29t-69 47q-49 45 -74 111t-25 157t25 157t74 111q31 28 69 46.5t88 29.5t114 15t147 4h435v-106h-424q-65 0 -116.5 -2.5t-90.5 -9.5t-68 -20t-49 -34q-33 -35 -45 -85t-12 -106t12 -106t45 -85q20 -21 49 -34
t68 -20t90.5 -9.5t116.5 -2.5h303zM504 791h-130l186 188h105l186 -188h-130l-104 99h-9z" />
    <glyph glyph-name="gcircumflex" unicode="&#x11d;" horiz-adv-x="905" 
d="M666 0h-321q-79 0 -133 15.5t-92 49.5q-33 29 -49.5 71t-16.5 91t16.5 91t49.5 71q38 34 92 49t133 15h451v-470q0 -107 -65 -165q-38 -34 -92.5 -48t-133.5 -14h-308v102h300q53 0 84.5 6t52.5 27q32 32 32 92v17zM666 102v249h-313q-53 0 -84.5 -5.5t-52.5 -26.5
q-16 -16 -23 -40.5t-7 -51.5t7 -51.5t23 -40.5q21 -21 52.5 -27t84.5 -6h313zM349 531h-130l186 188h105l186 -188h-130l-104 99h-9z" />
    <glyph glyph-name="Gbreve" unicode="&#x11e;" horiz-adv-x="1156" 
d="M897 106v241h135v-347h-449q-83 0 -147 4t-114 15t-88 29t-69 47q-49 45 -74 111t-25 157t25 157t74 111q31 28 69 46.5t88 29.5t114 15t147 4h435v-106h-424q-65 0 -116.5 -2.5t-90.5 -9.5t-68 -20t-49 -34q-33 -35 -45 -85t-12 -106t12 -106t45 -85q20 -21 49 -34
t68 -20t90.5 -9.5t116.5 -2.5h303zM611 813q-95 0 -154.5 42t-70.5 129h100q5 -41 37.5 -65t92.5 -24h7q60 0 92.5 24t37.5 65h100q-11 -87 -71 -129t-154 -42h-17z" />
    <glyph glyph-name="gbreve" unicode="&#x11f;" horiz-adv-x="905" 
d="M666 0h-321q-79 0 -133 15.5t-92 49.5q-33 29 -49.5 71t-16.5 91t16.5 91t49.5 71q38 34 92 49t133 15h451v-470q0 -107 -65 -165q-38 -34 -92.5 -48t-133.5 -14h-308v102h300q53 0 84.5 6t52.5 27q32 32 32 92v17zM666 102v249h-313q-53 0 -84.5 -5.5t-52.5 -26.5
q-16 -16 -23 -40.5t-7 -51.5t7 -51.5t23 -40.5q21 -21 52.5 -27t84.5 -6h313zM453 553q-95 0 -154.5 42t-70.5 129h100q5 -41 37.5 -65t92.5 -24h7q60 0 92.5 24t37.5 65h100q-11 -87 -71 -129t-154 -42h-17z" />
    <glyph glyph-name="Gdotaccent" unicode="&#x120;" horiz-adv-x="1156" 
d="M897 106v241h135v-347h-449q-83 0 -147 4t-114 15t-88 29t-69 47q-49 45 -74 111t-25 157t25 157t74 111q31 28 69 46.5t88 29.5t114 15t147 4h435v-106h-424q-65 0 -116.5 -2.5t-90.5 -9.5t-68 -20t-49 -34q-33 -35 -45 -85t-12 -106t12 -106t45 -85q20 -21 49 -34
t68 -20t90.5 -9.5t116.5 -2.5h303zM616 978q35 0 59.5 -18t24.5 -58v-4q0 -41 -24.5 -58.5t-59.5 -17.5h-11q-37 0 -60.5 17.5t-23.5 58.5v4q0 40 23.5 58t60.5 18h11z" />
    <glyph glyph-name="gdotaccent" unicode="&#x121;" horiz-adv-x="905" 
d="M666 0h-321q-79 0 -133 15.5t-92 49.5q-33 29 -49.5 71t-16.5 91t16.5 91t49.5 71q38 34 92 49t133 15h451v-470q0 -107 -65 -165q-38 -34 -92.5 -48t-133.5 -14h-308v102h300q53 0 84.5 6t52.5 27q32 32 32 92v17zM666 102v249h-313q-53 0 -84.5 -5.5t-52.5 -26.5
q-16 -16 -23 -40.5t-7 -51.5t7 -51.5t23 -40.5q21 -21 52.5 -27t84.5 -6h313zM472 713q33 0 56 -17t23 -55v-4q0 -38 -23 -55t-56 -17h-11q-35 0 -57 17t-22 55v4q0 38 22 55t57 17h11z" />
    <glyph glyph-name="Gcommaaccent" unicode="&#x122;" horiz-adv-x="1156" 
d="M897 106v241h135v-347h-449q-83 0 -147 4t-114 15t-88 29t-69 47q-49 45 -74 111t-25 157t25 157t74 111q31 28 69 46.5t88 29.5t114 15t147 4h435v-106h-424q-65 0 -116.5 -2.5t-90.5 -9.5t-68 -20t-49 -34q-33 -35 -45 -85t-12 -106t12 -106t45 -85q20 -21 49 -34
t68 -20t90.5 -9.5t116.5 -2.5h303zM551 -89h134l-75 -247h-95z" />
    <glyph glyph-name="gcommaaccent" unicode="&#x123;" horiz-adv-x="905" 
d="M666 0h-321q-79 0 -133 15.5t-92 49.5q-33 29 -49.5 71t-16.5 91t16.5 91t49.5 71q38 34 92 49t133 15h451v-470q0 -107 -65 -165q-38 -34 -92.5 -48t-133.5 -14h-308v102h300q53 0 84.5 6t52.5 27q32 32 32 92v17zM666 102v249h-313q-53 0 -84.5 -5.5t-52.5 -26.5
q-16 -16 -23 -40.5t-7 -51.5t7 -51.5t23 -40.5q21 -21 52.5 -27t84.5 -6h313zM522.017 533.994h-133.991l74.9951 246.985h94.9941z" />
    <glyph glyph-name="Hcircumflex" unicode="&#x124;" horiz-adv-x="1218" 
d="M1078 0h-139v326h-690v-326h-139v726h139v-292h690v292h139v-726zM484 791h-130l186 188h105l186 -188h-130l-104 99h-9z" />
    <glyph glyph-name="hcircumflex" unicode="&#x125;" 
d="M209 0h-130v726h130v-273h323q72 0 119 -14t77 -43q26 -25 38.5 -60.5t12.5 -86.5v-249h-130v234q0 61 -26 87q-17 16 -47 23t-73 7h-294v-351zM37 778h-130l186 188h105l186 -188h-130l-104 99h-9z" />
    <glyph glyph-name="Hbar" unicode="&#x126;" horiz-adv-x="1218" 
d="M1078 628h93v-88h-93v-540h-139v326h-690v-326h-139v540h-91v88h91v98h139v-98h690v98h139v-98zM249 434h690v106h-690v-106z" />
    <glyph glyph-name="hbar" unicode="&#x127;" 
d="M209 0h-130v546h-92v88h92v92h130v-92h258v-88h-258v-93h323q72 0 119 -14t77 -43q26 -25 38.5 -60.5t12.5 -86.5v-249h-130v234q0 61 -26 87q-17 16 -47 23t-73 7h-294v-351z" />
    <glyph glyph-name="Itilde" unicode="&#x128;" horiz-adv-x="393" 
d="M112 726h139v-726h-139v726zM459 912q-26 -48 -68.5 -75t-95.5 -27q-31 0 -55 6t-50 17l-27 12q-42 19 -75 19q-34 0 -65 -15t-58 -41l-60 54q38 48 84 74.5t106 26.5q20 0 45 -6t50 -17l28 -13q20 -9 38.5 -17t39.5 -8q54 0 99 57z" />
    <glyph glyph-name="itilde" unicode="&#x129;" horiz-adv-x="322" 
d="M211 0h-130v453h130v-453zM423 652q-26 -48 -68.5 -75t-95.5 -27q-31 0 -55 6t-50 17l-27 12q-42 19 -75 19q-34 0 -65 -15t-58 -41l-60 54q38 48 84 74.5t106 26.5q20 0 45 -6t50 -17l28 -13q20 -9 38.5 -17t39.5 -8q54 0 99 57z" />
    <glyph glyph-name="Imacron" unicode="&#x12a;" horiz-adv-x="393" 
d="M112 726h139v-726h-139v726zM-75 932h514v-90h-514v90z" />
    <glyph glyph-name="imacron" unicode="&#x12b;" horiz-adv-x="322" 
d="M211 0h-130v453h130v-453zM-111 674h514v-90h-514v90z" />
    <glyph glyph-name="Ibreve" unicode="&#x12c;" horiz-adv-x="393" 
d="M112 726h139v-726h-139v726zM174 813q-95 0 -154.5 42t-70.5 129h100q5 -41 37.5 -65t92.5 -24h7q60 0 92.5 24t37.5 65h100q-11 -87 -71 -129t-154 -42h-17z" />
    <glyph glyph-name="ibreve" unicode="&#x12d;" horiz-adv-x="322" 
d="M211 0h-130v453h130v-453zM138 553q-95 0 -154.5 42t-70.5 129h100q5 -41 37.5 -65t92.5 -24h7q60 0 92.5 24t37.5 65h100q-11 -87 -71 -129t-154 -42h-17z" />
    <glyph glyph-name="Iogonek" unicode="&#x12e;" horiz-adv-x="393" 
d="M112 726h139v-726q-78 -38 -119.5 -84.5t-41.5 -86.5q0 -20 14 -35.5t59 -15.5h74v-87h-74q-98 0 -140 31.5t-42 90.5q0 49 29.5 99.5t101.5 94.5v719z" />
    <glyph glyph-name="iogonek" unicode="&#x12f;" horiz-adv-x="322" 
d="M-44 -187q0 48 28.5 97.5t96.5 92.5v450h130v-453q-69 -39 -107.5 -85t-38.5 -86q0 -20 14 -35.5t59 -15.5h74v-87h-74q-98 0 -140 31.5t-42 90.5zM139 555q-32 0 -52.5 15.5t-20.5 49.5v5q0 35 20.5 50t52.5 15h11q30 0 51.5 -15t21.5 -50v-5q0 -34 -21.5 -49.5
t-51.5 -15.5h-11z" />
    <glyph glyph-name="Idotaccent" unicode="&#x130;" horiz-adv-x="393" 
d="M112 726h139v-726h-139v726zM188 978q35 0 59.5 -18t24.5 -58v-4q0 -41 -24.5 -58.5t-59.5 -17.5h-11q-37 0 -60.5 17.5t-23.5 58.5v4q0 40 23.5 58t60.5 18h11z" />
    <glyph glyph-name="dotlessi" unicode="&#x131;" horiz-adv-x="322" 
d="M211 0h-130v453h130v-453z" />
    <glyph glyph-name="IJ" unicode="&#x132;" horiz-adv-x="1332" 
d="M112 726h139v-726h-139v726zM429 0v106h355q83 0 138.5 13t87.5 43q29 27 41.5 69.5t12.5 101.5v393h139v-412q0 -79 -19 -134t-61 -94q-44 -42 -117.5 -64t-187.5 -22h-389z" />
    <glyph glyph-name="ij" unicode="&#x133;" horiz-adv-x="614" 
d="M211 0h-130v453h130v-453zM139 555q-32 0 -52.5 15.5t-20.5 49.5v5q0 35 20.5 50t52.5 15h11q30 0 51.5 -15t21.5 -50v-5q0 -34 -21.5 -49.5t-51.5 -15.5h-11zM503 -58q0 -95 -52.5 -140.5t-149.5 -45.5h-77v100h34q38 0 60.5 4t34.5 15.5t16 32t4 52.5v493h130v-511z
M431 555q-32 0 -52.5 15.5t-20.5 49.5v5q0 35 20.5 50t52.5 15h11q30 0 51.5 -15t21.5 -50v-5q0 -34 -21.5 -49.5t-51.5 -15.5h-11z" />
    <glyph glyph-name="Jcircumflex" unicode="&#x134;" horiz-adv-x="969" 
d="M66 0v106h355q83 0 138.5 13t87.5 43q29 27 41.5 69.5t12.5 101.5v393h139v-412q0 -79 -19 -134t-61 -94q-44 -42 -117.5 -64t-187.5 -22h-389zM665 791h-130l186 188h105l186 -188h-130l-104 99h-9z" />
    <glyph glyph-name="jcircumflex" unicode="&#x135;" horiz-adv-x="322" 
d="M211 -58q0 -95 -52.5 -140.5t-149.5 -45.5h-77v100h34q38 0 60.5 4t34.5 15.5t16 32t4 52.5v493h130v-511zM38 531h-130l186 188h105l186 -188h-130l-104 99h-9z" />
    <glyph glyph-name="Kcommaaccent" unicode="&#x136;" horiz-adv-x="1120" 
d="M110 0v726h140v-369l586 369h195l-493 -306l524 -420h-192l-438 354l-182 -113v-241h-140zM480 -89h134l-75 -247h-95z" />
    <glyph glyph-name="kcommaaccent" unicode="&#x137;" horiz-adv-x="790" 
d="M209 0h-130v726h130v-470l317 197h178l-279 -171l313 -282h-169l-241 223l-119 -73v-150zM301 -89h134l-75 -247h-95z" />
    <glyph glyph-name="kgreenlandic" unicode="&#x138;" horiz-adv-x="790" 
d="M209 0h-130v453h130v-209l335 209h160l-279 -171l313 -282h-169l-241 223l-119 -73v-150z" />
    <glyph glyph-name="Lacute" unicode="&#x139;" horiz-adv-x="1000" 
d="M249 105h673v-105h-812v726h139v-621zM231 990h180l-191 -185h-125z" />
    <glyph glyph-name="lacute" unicode="&#x13a;" horiz-adv-x="322" 
d="M211 0h-130v726h130v-726zM204 1003h180l-191 -185h-125z" />
    <glyph glyph-name="Lcommaaccent" unicode="&#x13b;" horiz-adv-x="1000" 
d="M249 105h673v-105h-812v726h139v-621zM454 -89h134l-75 -247h-95z" />
    <glyph glyph-name="lcommaaccent" unicode="&#x13c;" horiz-adv-x="322" 
d="M211 0h-130v726h130v-726zM94 -89h134l-75 -247h-95z" />
    <glyph glyph-name="Lcaron" unicode="&#x13d;" horiz-adv-x="1000" 
d="M398 725h134l-75 -247h-95zM249 105h673v-105h-812v726h139v-621z" />
    <glyph glyph-name="lcaron" unicode="&#x13e;" horiz-adv-x="423" 
d="M319 726h134l-75 -247h-95zM211 0h-130v726h130v-726z" />
    <glyph glyph-name="Ldot" unicode="&#x13f;" horiz-adv-x="1000" 
d="M249 105h673v-105h-812v726h139v-621zM663 488q33 0 56 -17t23 -55v-4q0 -38 -23 -55t-56 -17h-11q-35 0 -57 17t-22 55v4q0 38 22 55t57 17h11z" />
    <glyph glyph-name="ldot" unicode="&#x140;" horiz-adv-x="486" 
d="M211 0h-130v726h130v-726zM377 427q33 0 56 -17t23 -55v-4q0 -38 -23 -55t-56 -17h-11q-35 0 -57 17t-22 55v4q0 38 22 55t57 17h11z" />
    <glyph glyph-name="Lslash" unicode="&#x141;" horiz-adv-x="1000" 
d="M249 484l202 100v-112l-202 -100v-267h673v-105h-812v304l-110 -55v112l110 55v310h139v-242z" />
    <glyph glyph-name="lslash" unicode="&#x142;" horiz-adv-x="340" 
d="M220 400l116 54v-106l-116 -54v-294h-130v233l-84 -39v106l84 39v387h130v-326z" />
    <glyph glyph-name="Nacute" unicode="&#x143;" horiz-adv-x="1242" 
d="M235 726l735 -575v575h132v-726h-125l-735 575v-575h-132v726h125zM658 990h180l-191 -185h-125z" />
    <glyph glyph-name="nacute" unicode="&#x144;" 
d="M79 0v453h453q72 0 119 -14t77 -43q26 -25 38.5 -60.5t12.5 -86.5v-249h-130v234q0 61 -26 87q-17 16 -47 23t-73 7h-294v-351h-130zM470 730h180l-191 -185h-125z" />
    <glyph glyph-name="Ncommaaccent" unicode="&#x145;" horiz-adv-x="1242" 
d="M235 726l735 -575v575h132v-726h-125l-735 575v-575h-132v726h125zM570 -89h134l-75 -247h-95z" />
    <glyph glyph-name="ncommaaccent" unicode="&#x146;" 
d="M79 0v453h453q72 0 119 -14t77 -43q26 -25 38.5 -60.5t12.5 -86.5v-249h-130v234q0 61 -26 87q-17 16 -47 23t-73 7h-294v-351h-130zM378 -89h134l-75 -247h-95z" />
    <glyph glyph-name="Ncaron" unicode="&#x147;" horiz-adv-x="1242" 
d="M235 726l735 -575v575h132v-726h-125l-735 575v-575h-132v726h125zM497 987.032h-130l186 -187.988h105l186 187.988h-130l-104 -98.9941h-9z" />
    <glyph glyph-name="ncaron" unicode="&#x148;" 
d="M79 0v453h453q72 0 119 -14t77 -43q26 -25 38.5 -60.5t12.5 -86.5v-249h-130v234q0 61 -26 87q-17 16 -47 23t-73 7h-294v-351h-130zM311 727.032h-130l186 -187.988h105l186 187.988h-130l-104 -98.9941h-9z" />
    <glyph glyph-name="napostrophe" unicode="&#x149;" horiz-adv-x="944" 
d="M142 0v453h453q72 0 119 -14t77 -43q26 -25 38.5 -60.5t12.5 -86.5v-249h-130v234q0 61 -26 87q-17 16 -47 23t-73 7h-294v-351h-130zM84 773q38 0 63.5 -20.5t25.5 -61.5v-5q0 -21 -7 -44t-28 -63l-78 -151h-80l79 179q-29 4 -49.5 24.5t-20.5 55.5v6q0 22 7.5 37
t19.5 24.5t27.5 14t32.5 4.5h8z" />
    <glyph glyph-name="Eng" unicode="&#x14a;" horiz-adv-x="1242" 
d="M235 726l735 -575v575h132v-683q0 -140 -64 -211.5t-203 -71.5h-100v107h94q77 0 109 38t32 101l-728 569v-575h-132v726h125z" />
    <glyph glyph-name="eng" unicode="&#x14b;" 
d="M779 0v-46q0 -60 -8.5 -98.5t-34.5 -63.5q-23 -23 -62 -34t-100 -11h-40v102h34q45 0 63 19t18 64v302q0 61 -26 87q-17 16 -47 23t-73 7h-294v-351h-130v453h453q72 0 119 -14t77 -43q26 -25 38.5 -60.5t12.5 -86.5v-249z" />
    <glyph glyph-name="Omacron" unicode="&#x14c;" horiz-adv-x="1274" 
d="M66 363q0 88 25 156t73 114q31 30 69.5 50t89.5 32.5t116.5 17.5t150.5 5h64q85 0 150.5 -5t116.5 -17.5t89.5 -32.5t69.5 -50q48 -46 73 -114t25 -156t-25 -156t-73 -114q-31 -30 -69.5 -50t-89.5 -32.5t-116.5 -17.5t-150.5 -5h-64q-85 0 -150.5 5t-116.5 17.5
t-89.5 32.5t-69.5 50q-48 46 -73 114t-25 156zM1031 363q0 57 -11.5 107t-45.5 85q-21 21 -50 34.5t-69 21t-91.5 10.5t-116.5 3h-50q-65 0 -116.5 -3t-91.5 -10.5t-69 -21t-50 -34.5q-34 -35 -45.5 -85t-11.5 -107t11.5 -107t45.5 -85q21 -21 50 -34.5t69 -21t91.5 -10.5
t116.5 -3h50q65 0 116.5 3t91.5 10.5t69 21t50 34.5q34 35 45.5 85t11.5 107zM365 932h514v-90h-514v90z" />
    <glyph glyph-name="omacron" unicode="&#x14d;" horiz-adv-x="897" 
d="M352 0q-160 0 -233 66q-32 29 -48.5 68t-16.5 92q0 101 65 160q74 67 233 67h163q159 0 233 -67q65 -59 65 -160q0 -53 -16.5 -92t-48.5 -68q-73 -66 -233 -66h-163zM361 351q-51 0 -87 -7.5t-57 -27.5q-17 -16 -24 -35.5t-7 -54.5t7 -54.5t24 -35.5q21 -20 57 -27t87 -7
h145q51 0 87 7t57 27q17 16 24 35.5t7 54.5t-7 54.5t-24 35.5q-21 20 -57 27.5t-87 7.5h-145zM177 674h514v-90h-514v90z" />
    <glyph glyph-name="Obreve" unicode="&#x14e;" horiz-adv-x="1274" 
d="M66 363q0 88 25 156t73 114q31 30 69.5 50t89.5 32.5t116.5 17.5t150.5 5h64q85 0 150.5 -5t116.5 -17.5t89.5 -32.5t69.5 -50q48 -46 73 -114t25 -156t-25 -156t-73 -114q-31 -30 -69.5 -50t-89.5 -32.5t-116.5 -17.5t-150.5 -5h-64q-85 0 -150.5 5t-116.5 17.5
t-89.5 32.5t-69.5 50q-48 46 -73 114t-25 156zM1031 363q0 57 -11.5 107t-45.5 85q-21 21 -50 34.5t-69 21t-91.5 10.5t-116.5 3h-50q-65 0 -116.5 -3t-91.5 -10.5t-69 -21t-50 -34.5q-34 -35 -45.5 -85t-11.5 -107t11.5 -107t45.5 -85q21 -21 50 -34.5t69 -21t91.5 -10.5
t116.5 -3h50q65 0 116.5 3t91.5 10.5t69 21t50 34.5q34 35 45.5 85t11.5 107zM613 813q-95 0 -154.5 42t-70.5 129h100q5 -41 37.5 -65t92.5 -24h7q60 0 92.5 24t37.5 65h100q-11 -87 -71 -129t-154 -42h-17z" />
    <glyph glyph-name="obreve" unicode="&#x14f;" horiz-adv-x="897" 
d="M352 0q-160 0 -233 66q-32 29 -48.5 68t-16.5 92q0 101 65 160q74 67 233 67h163q159 0 233 -67q65 -59 65 -160q0 -53 -16.5 -92t-48.5 -68q-73 -66 -233 -66h-163zM361 351q-51 0 -87 -7.5t-57 -27.5q-17 -16 -24 -35.5t-7 -54.5t7 -54.5t24 -35.5q21 -20 57 -27t87 -7
h145q51 0 87 7t57 27q17 16 24 35.5t7 54.5t-7 54.5t-24 35.5q-21 20 -57 27.5t-87 7.5h-145zM426 553q-95 0 -154.5 42t-70.5 129h100q5 -41 37.5 -65t92.5 -24h7q60 0 92.5 24t37.5 65h100q-11 -87 -71 -129t-154 -42h-17z" />
    <glyph glyph-name="Ohungarumlaut" unicode="&#x150;" horiz-adv-x="1274" 
d="M66 363q0 88 25 156t73 114q31 30 69.5 50t89.5 32.5t116.5 17.5t150.5 5h64q85 0 150.5 -5t116.5 -17.5t89.5 -32.5t69.5 -50q48 -46 73 -114t25 -156t-25 -156t-73 -114q-31 -30 -69.5 -50t-89.5 -32.5t-116.5 -17.5t-150.5 -5h-64q-85 0 -150.5 5t-116.5 17.5
t-89.5 32.5t-69.5 50q-48 46 -73 114t-25 156zM1031 363q0 57 -11.5 107t-45.5 85q-21 21 -50 34.5t-69 21t-91.5 10.5t-116.5 3h-50q-65 0 -116.5 -3t-91.5 -10.5t-69 -21t-50 -34.5q-34 -35 -45.5 -85t-11.5 -107t11.5 -107t45.5 -85q21 -21 50 -34.5t69 -21t91.5 -10.5
t116.5 -3h50q65 0 116.5 3t91.5 10.5t69 21t50 34.5q34 35 45.5 85t11.5 107zM518 990h163l-152 -185h-118zM809 990h163l-152 -185h-118z" />
    <glyph glyph-name="ohungarumlaut" unicode="&#x151;" horiz-adv-x="897" 
d="M352 0q-160 0 -233 66q-32 29 -48.5 68t-16.5 92q0 101 65 160q74 67 233 67h163q159 0 233 -67q65 -59 65 -160q0 -53 -16.5 -92t-48.5 -68q-73 -66 -233 -66h-163zM361 351q-51 0 -87 -7.5t-57 -27.5q-17 -16 -24 -35.5t-7 -54.5t7 -54.5t24 -35.5q21 -20 57 -27t87 -7
h145q51 0 87 7t57 27q17 16 24 35.5t7 54.5t-7 54.5t-24 35.5q-21 20 -57 27.5t-87 7.5h-145zM321 730h163l-152 -185h-118zM612 730h163l-152 -185h-118z" />
    <glyph glyph-name="OE" unicode="&#x152;" horiz-adv-x="1965" 
d="M66 363q0 88 25 156t73 114q31 30 69.5 50t89.5 32.5t116.5 17.5t150.5 5h64q151 0 243 -19t140 -66v73h834v-105h-695v-199h473v-103h-473v-214h699v-105h-838v83q-47 -47 -138.5 -71t-244.5 -24h-64q-85 0 -150.5 5t-116.5 17.5t-89.5 32.5t-69.5 50q-48 46 -73 114
t-25 156zM1031 363q0 57 -11.5 106t-45.5 84q-21 21 -50 35t-69 22t-91.5 11t-116.5 3h-50q-65 0 -116.5 -3t-91.5 -10.5t-69 -21t-50 -34.5q-34 -35 -45.5 -85t-11.5 -107t11.5 -107t45.5 -85q21 -21 50 -34.5t69 -21t91.5 -10.5t116.5 -3h50q65 0 116.5 3t91.5 11t69 22
t50 35q34 35 45.5 84t11.5 106z" />
    <glyph glyph-name="oe" unicode="&#x153;" horiz-adv-x="1483" 
d="M352 0q-160 0 -233 66q-32 29 -48.5 68t-16.5 92q0 101 65 160q74 67 233 67h163q79 0 138.5 -17t94.5 -50q1 -2 2 -2.5t2 -1.5q32 33 89 52t141 19h113q79 0 138 -16.5t97 -51.5q32 -30 48.5 -73.5t16.5 -97.5v-34h-579q5 -38 29 -56q18 -14 49.5 -19t86.5 -5h375v-100
h-385q-36 0 -70 4t-63.5 12t-53.5 20t-39 27q-73 -63 -230 -63h-163zM361 351q-51 0 -87 -7.5t-57 -27.5q-17 -16 -24 -35.5t-7 -54.5t7 -54.5t24 -35.5q21 -20 57 -27t87 -7h145q51 0 87 7t57 27q17 16 24 35.5t7 54.5t-7 54.5t-24 35.5q-21 20 -57 27.5t-87 7.5h-145z
M980 353q-41 0 -67 -3.5t-44 -11.5q-44 -20 -51 -70h445q-5 25 -16 41t-30 26t-47.5 14t-68.5 4h-121z" />
    <glyph glyph-name="Racute" unicode="&#x154;" horiz-adv-x="1178" 
d="M249 220v-220h-139v726h613q86 0 148.5 -17.5t102.5 -57.5q30 -30 46.5 -74t16.5 -104t-16.5 -104t-46.5 -74q-53 -53 -152 -68q23 -13 48 -32t61 -51l160 -144h-182l-201 182q-14 12 -25 19.5t-22 11.5t-23.5 5.5t-29.5 1.5h-359zM710 325q57 0 93 8.5t57 28.5
q34 34 34 111t-34 111q-21 20 -57 28.5t-93 8.5h-461v-296h461zM599 990h180l-191 -185h-125z" />
    <glyph glyph-name="racute" unicode="&#x155;" horiz-adv-x="595" 
d="M315 351q-32 0 -52 -5t-34 -16q-15 -13 -21 -30.5t-6 -46.5v-253h-130v267q0 63 21.5 100.5t63.5 57.5q31 16 68.5 22t99.5 6h225v-102h-235zM370 730h180l-191 -185h-125z" />
    <glyph glyph-name="Rcommaaccent" unicode="&#x156;" horiz-adv-x="1178" 
d="M249 220v-220h-139v726h613q86 0 148.5 -17.5t102.5 -57.5q30 -30 46.5 -74t16.5 -104t-16.5 -104t-46.5 -74q-53 -53 -152 -68q23 -13 48 -32t61 -51l160 -144h-182l-201 182q-14 12 -25 19.5t-22 11.5t-23.5 5.5t-29.5 1.5h-359zM710 325q57 0 93 8.5t57 28.5
q34 34 34 111t-34 111q-21 20 -57 28.5t-93 8.5h-461v-296h461zM512 -89h134l-75 -247h-95z" />
    <glyph glyph-name="rcommaaccent" unicode="&#x157;" horiz-adv-x="595" 
d="M315 351q-32 0 -52 -5t-34 -16q-15 -13 -21 -30.5t-6 -46.5v-253h-130v267q0 63 21.5 100.5t63.5 57.5q31 16 68.5 22t99.5 6h225v-102h-235zM72 -89h134l-75 -247h-95z" />
    <glyph glyph-name="Rcaron" unicode="&#x158;" horiz-adv-x="1178" 
d="M249 220v-220h-139v726h613q86 0 148.5 -17.5t102.5 -57.5q30 -30 46.5 -74t16.5 -104t-16.5 -104t-46.5 -74q-53 -53 -152 -68q23 -13 48 -32t61 -51l160 -144h-182l-201 182q-14 12 -25 19.5t-22 11.5t-23.5 5.5t-29.5 1.5h-359zM710 325q57 0 93 8.5t57 28.5
q34 34 34 111t-34 111q-21 20 -57 28.5t-93 8.5h-461v-296h461zM436 987.032h-130l186 -187.988h105l186 187.988h-130l-104 -98.9941h-9z" />
    <glyph glyph-name="rcaron" unicode="&#x159;" horiz-adv-x="595" 
d="M315 351q-32 0 -52 -5t-34 -16q-15 -13 -21 -30.5t-6 -46.5v-253h-130v267q0 63 21.5 100.5t63.5 57.5q31 16 68.5 22t99.5 6h225v-102h-235zM213 727.032h-130l186 -187.988h105l186 187.988h-130l-104 -98.9941h-9z" />
    <glyph glyph-name="Sacute" unicode="&#x15a;" horiz-adv-x="1113" 
d="M116 0v104h533q52 0 93.5 2.5t69.5 12t43 28.5t15 51q0 27 -11 43.5t-32 26.5t-52 15.5t-71 9.5l-353 36q-63 6 -113.5 19.5t-86.5 37t-55 58.5t-19 85q0 55 23.5 93t66.5 61t103 33t133 10h560v-104h-549q-57 0 -95 -4t-61 -14.5t-33 -28t-10 -43.5q0 -27 12 -43.5
t34 -26.5t52.5 -15t67.5 -9l356 -36q67 -7 118 -20.5t85 -37t51 -58.5t17 -85q0 -111 -85 -156t-260 -45h-547zM596 990h180l-191 -185h-125z" />
    <glyph glyph-name="sacute" unicode="&#x15b;" horiz-adv-x="847" 
d="M76 0v102h521q31 0 44.5 8t13.5 29q0 37 -58 37h-395q-66 0 -106 39t-40 105q0 33 12.5 58t34 41.5t50 25t61.5 8.5h510v-102h-490q-32 0 -48 -7t-16 -29q0 -20 13.5 -28.5t44.5 -8.5h383q70 0 114 -37t44 -103t-41.5 -102t-107.5 -36h-544zM462 730h180l-191 -185h-125z
" />
    <glyph glyph-name="Scircumflex" unicode="&#x15c;" horiz-adv-x="1113" 
d="M116 0v104h533q52 0 93.5 2.5t69.5 12t43 28.5t15 51q0 27 -11 43.5t-32 26.5t-52 15.5t-71 9.5l-353 36q-63 6 -113.5 19.5t-86.5 37t-55 58.5t-19 85q0 55 23.5 93t66.5 61t103 33t133 10h560v-104h-549q-57 0 -95 -4t-61 -14.5t-33 -28t-10 -43.5q0 -27 12 -43.5
t34 -26.5t52.5 -15t67.5 -9l356 -36q67 -7 118 -20.5t85 -37t51 -58.5t17 -85q0 -111 -85 -156t-260 -45h-547zM452 791h-130l186 188h105l186 -188h-130l-104 99h-9z" />
    <glyph glyph-name="scircumflex" unicode="&#x15d;" horiz-adv-x="847" 
d="M76 0v102h521q31 0 44.5 8t13.5 29q0 37 -58 37h-395q-66 0 -106 39t-40 105q0 33 12.5 58t34 41.5t50 25t61.5 8.5h510v-102h-490q-32 0 -48 -7t-16 -29q0 -20 13.5 -28.5t44.5 -8.5h383q70 0 114 -37t44 -103t-41.5 -102t-107.5 -36h-544zM307 531h-130l186 188h105
l186 -188h-130l-104 99h-9z" />
    <glyph glyph-name="Scedilla" unicode="&#x15e;" horiz-adv-x="1113" 
d="M542 0l-10 -53h70q78 0 118.5 -31.5t40.5 -88.5q0 -66 -44.5 -101t-138.5 -35h-201v83h201q41 0 54.5 11.5t13.5 33.5q0 27 -15.5 36t-48.5 9h-151l27 136h-342v104h533q52 0 93.5 2.5t69.5 12t43 28.5t15 51q0 27 -11 43.5t-32 26.5t-52 15.5t-71 9.5l-353 36
q-63 6 -113.5 19.5t-86.5 37t-55 58.5t-19 85q0 55 23.5 93t66.5 61t103 33t133 10h560v-104h-549q-57 0 -95 -4t-61 -14.5t-33 -28t-10 -43.5q0 -27 12 -43.5t34 -26.5t52.5 -15t67.5 -9l356 -36q67 -7 118 -20.5t85 -37t51 -58.5t17 -85q0 -111 -85 -156t-260 -45h-121z
" />
    <glyph glyph-name="scedilla" unicode="&#x15f;" horiz-adv-x="847" 
d="M419 0l-10 -53h70q78 0 118.5 -31.5t40.5 -88.5q0 -66 -44.5 -101t-138.5 -35h-201v83h201q41 0 54.5 11.5t13.5 33.5q0 27 -15.5 36t-48.5 9h-151l27 136h-259v102h521q31 0 44.5 8t13.5 29q0 37 -58 37h-395q-66 0 -106 39t-40 105q0 33 12.5 58t34 41.5t50 25
t61.5 8.5h510v-102h-490q-32 0 -48 -7t-16 -29q0 -20 13.5 -28.5t44.5 -8.5h383q70 0 114 -37t44 -103t-41.5 -102t-107.5 -36h-201z" />
    <glyph glyph-name="Scaron" unicode="&#x160;" horiz-adv-x="1113" 
d="M116 0v104h533q52 0 93.5 2.5t69.5 12t43 28.5t15 51q0 27 -11 43.5t-32 26.5t-52 15.5t-71 9.5l-353 36q-63 6 -113.5 19.5t-86.5 37t-55 58.5t-19 85q0 55 23.5 93t66.5 61t103 33t133 10h560v-104h-549q-57 0 -95 -4t-61 -14.5t-33 -28t-10 -43.5q0 -27 12 -43.5
t34 -26.5t52.5 -15t67.5 -9l356 -36q67 -7 118 -20.5t85 -37t51 -58.5t17 -85q0 -111 -85 -156t-260 -45h-547zM450 987.032h-130l186 -187.988h105l186 187.988h-130l-104 -98.9941h-9z" />
    <glyph glyph-name="scaron" unicode="&#x161;" horiz-adv-x="847" 
d="M76 0v102h521q31 0 44.5 8t13.5 29q0 37 -58 37h-395q-66 0 -106 39t-40 105q0 33 12.5 58t34 41.5t50 25t61.5 8.5h510v-102h-490q-32 0 -48 -7t-16 -29q0 -20 13.5 -28.5t44.5 -8.5h383q70 0 114 -37t44 -103t-41.5 -102t-107.5 -36h-544zM307 727.032h-130
l186 -187.988h105l186 187.988h-130l-104 -98.9941h-9z" />
    <glyph glyph-name="Tcommaaccent" unicode="&#x162;" horiz-adv-x="1037" 
d="M573 0h-139v621h-390v105h919v-105h-390v-621zM451 -89h134l-75 -247h-95z" />
    <glyph glyph-name="tcommaaccent" unicode="&#x163;" horiz-adv-x="647" 
d="M319 0q-72 0 -119 14t-77 43q-26 25 -38.5 60.5t-12.5 86.5v475h130v-226h309v-98h-309v-136q0 -61 26 -87q17 -16 47 -23t73 -7h215v-102h-244zM277 -89h134l-75 -247h-95z" />
    <glyph glyph-name="Tcaron" unicode="&#x164;" horiz-adv-x="1037" 
d="M573 0h-139v621h-390v105h919v-105h-390v-621zM395 987.032h-130l186 -187.988h105l186 187.988h-130l-104 -98.9941h-9z" />
    <glyph glyph-name="tcaron" unicode="&#x165;" horiz-adv-x="647" 
d="M358 799h134l-75 -247h-95zM319 0q-72 0 -119 14t-77 43q-26 25 -38.5 60.5t-12.5 86.5v475h130v-226h309v-98h-309v-136q0 -61 26 -87q17 -16 47 -23t73 -7h215v-102h-244z" />
    <glyph glyph-name="Tbar" unicode="&#x166;" horiz-adv-x="1037" 
d="M573 358h243v-94h-243v-264h-139v264h-243v94h243v263h-390v105h919v-105h-390v-263z" />
    <glyph glyph-name="tbar" unicode="&#x167;" horiz-adv-x="676" 
d="M348 0q-72 0 -119 14t-77 43q-47 44 -51 132h-101v98h101v392h130v-226h309v-98h-309v-68h168v-98h-167q4 -36 25 -57q17 -16 47 -23t73 -7h215v-102h-244z" />
    <glyph glyph-name="Utilde" unicode="&#x168;" horiz-adv-x="1189" 
d="M1065 276q0 -69 -16.5 -113t-50.5 -77q-54 -53 -153 -75.5t-246 -22.5h-39q-147 0 -246 22.5t-153 75.5q-34 33 -50.5 77t-16.5 113v450h138v-424q0 -51 9 -84t35 -56q34 -32 103.5 -47.5t188.5 -15.5h24q119 0 188 15.5t104 47.5q26 23 35 56t9 84v424h137v-450z
M857 912q-26 -48 -68.5 -75t-95.5 -27q-31 0 -55 6t-50 17l-27 12q-42 19 -75 19q-34 0 -65 -15t-58 -41l-60 54q38 48 84 74.5t106 26.5q20 0 45 -6t50 -17l28 -13q20 -9 38.5 -17t39.5 -8q54 0 99 57z" />
    <glyph glyph-name="utilde" unicode="&#x169;" 
d="M772 453v-453h-453q-72 0 -119 14t-77 43q-26 25 -38.5 60.5t-12.5 86.5v249h130v-234q0 -61 26 -87q17 -16 47 -23t73 -7h294v351h130zM711 652q-26 -48 -68.5 -75t-95.5 -27q-31 0 -55 6t-50 17l-27 12q-42 19 -75 19q-34 0 -65 -15t-58 -41l-60 54q38 48 84 74.5
t106 26.5q20 0 45 -6t50 -17l28 -13q20 -9 38.5 -17t39.5 -8q54 0 99 57z" />
    <glyph glyph-name="Umacron" unicode="&#x16a;" horiz-adv-x="1189" 
d="M1065 276q0 -69 -16.5 -113t-50.5 -77q-54 -53 -153 -75.5t-246 -22.5h-39q-147 0 -246 22.5t-153 75.5q-34 33 -50.5 77t-16.5 113v450h138v-424q0 -51 9 -84t35 -56q34 -32 103.5 -47.5t188.5 -15.5h24q119 0 188 15.5t104 47.5q26 23 35 56t9 84v424h137v-450z
M322 932h514v-90h-514v90z" />
    <glyph glyph-name="umacron" unicode="&#x16b;" 
d="M772 453v-453h-453q-72 0 -119 14t-77 43q-26 25 -38.5 60.5t-12.5 86.5v249h130v-234q0 -61 26 -87q17 -16 47 -23t73 -7h294v351h130zM168 674h514v-90h-514v90z" />
    <glyph glyph-name="Ubreve" unicode="&#x16c;" horiz-adv-x="1189" 
d="M1065 276q0 -69 -16.5 -113t-50.5 -77q-54 -53 -153 -75.5t-246 -22.5h-39q-147 0 -246 22.5t-153 75.5q-34 33 -50.5 77t-16.5 113v450h138v-424q0 -51 9 -84t35 -56q34 -32 103.5 -47.5t188.5 -15.5h24q119 0 188 15.5t104 47.5q26 23 35 56t9 84v424h137v-450z
M571 813q-95 0 -154.5 42t-70.5 129h100q5 -41 37.5 -65t92.5 -24h7q60 0 92.5 24t37.5 65h100q-11 -87 -71 -129t-154 -42h-17z" />
    <glyph glyph-name="ubreve" unicode="&#x16d;" 
d="M772 453v-453h-453q-72 0 -119 14t-77 43q-26 25 -38.5 60.5t-12.5 86.5v249h130v-234q0 -61 26 -87q17 -16 47 -23t73 -7h294v351h130zM425 553q-95 0 -154.5 42t-70.5 129h100q5 -41 37.5 -65t92.5 -24h7q60 0 92.5 24t37.5 65h100q-11 -87 -71 -129t-154 -42h-17z" />
    <glyph glyph-name="Uring" unicode="&#x16e;" horiz-adv-x="1189" 
d="M1065 276q0 -69 -16.5 -113t-50.5 -77q-54 -53 -153 -75.5t-246 -22.5h-39q-147 0 -246 22.5t-153 75.5q-34 33 -50.5 77t-16.5 113v450h138v-424q0 -51 9 -84t35 -56q34 -32 103.5 -47.5t188.5 -15.5h24q119 0 188 15.5t104 47.5q26 23 35 56t9 84v424h137v-450z
M587 856q30 0 51.5 8.5t21.5 39.5q0 29 -21.5 38.5t-51.5 9.5h-12q-30 0 -51.5 -8.5t-21.5 -39.5q0 -29 21.5 -38.5t51.5 -9.5h12zM556 796q-26 0 -50 6t-42 19t-28.5 33.5t-10.5 49.5q0 27 10.5 47.5t28 34t41.5 20t51 6.5h50q25 0 49 -6t42 -19t29 -33.5t11 -49.5
q0 -28 -10.5 -48t-28 -33.5t-41.5 -20t-51 -6.5h-50z" />
    <glyph glyph-name="uring" unicode="&#x16f;" 
d="M772 453v-453h-453q-72 0 -119 14t-77 43q-26 25 -38.5 60.5t-12.5 86.5v249h130v-234q0 -61 26 -87q17 -16 47 -23t73 -7h294v351h130zM441 596q30 0 51.5 8.5t21.5 39.5q0 29 -21.5 38.5t-51.5 9.5h-12q-30 0 -51.5 -8.5t-21.5 -39.5q0 -29 21.5 -38.5t51.5 -9.5h12z
M410 536q-26 0 -50 6t-42 19t-28.5 33.5t-10.5 49.5q0 27 10.5 47.5t28 34t41.5 20t51 6.5h50q25 0 49 -6t42 -19t29 -33.5t11 -49.5q0 -28 -10.5 -48t-28 -33.5t-41.5 -20t-51 -6.5h-50z" />
    <glyph glyph-name="Uhungarumlaut" unicode="&#x170;" horiz-adv-x="1189" 
d="M1065 276q0 -69 -16.5 -113t-50.5 -77q-54 -53 -153 -75.5t-246 -22.5h-39q-147 0 -246 22.5t-153 75.5q-34 33 -50.5 77t-16.5 113v450h138v-424q0 -51 9 -84t35 -56q34 -32 103.5 -47.5t188.5 -15.5h24q119 0 188 15.5t104 47.5q26 23 35 56t9 84v424h137v-450z
M455 990h163l-152 -185h-118zM746 990h163l-152 -185h-118z" />
    <glyph glyph-name="uhungarumlaut" unicode="&#x171;" 
d="M772 453v-453h-453q-72 0 -119 14t-77 43q-26 25 -38.5 60.5t-12.5 86.5v249h130v-234q0 -61 26 -87q17 -16 47 -23t73 -7h294v351h130zM311 730h163l-152 -185h-118zM602 730h163l-152 -185h-118z" />
    <glyph glyph-name="Uogonek" unicode="&#x172;" horiz-adv-x="1189" 
d="M1065 276q0 -69 -16.5 -113t-50.5 -77q-29 -29 -62.5 -45.5t-72.5 -28.5q-47 -15 -83.5 -36.5t-61 -46.5t-37 -51t-12.5 -49q0 -10 3 -19t10.5 -16t21.5 -11.5t37 -4.5h74v-87h-74q-94 0 -137.5 32t-43.5 91q0 22 7.5 45.5t21.5 46.5t35.5 44.5t49.5 39.5q-22 -2 -37 -2
h-38h-39q-147 0 -246 22.5t-153 75.5q-34 33 -50.5 77t-16.5 113v450h138v-424q0 -51 9 -84t35 -56q34 -32 103.5 -47.5t188.5 -15.5h24q119 0 188 15.5t104 47.5q26 23 35 56t9 84v424h137v-450z" />
    <glyph glyph-name="uogonek" unicode="&#x173;" 
d="M772 0q-75 -41 -112 -87t-37 -84q0 -21 14 -36t59 -15h74v-87h-74q-89 0 -135.5 30.5t-46.5 89.5q0 47 35.5 99.5t101.5 89.5h-332q-72 0 -119 14t-77 43q-26 25 -38.5 60.5t-12.5 86.5v249h130v-234q0 -61 26 -87q17 -16 47 -23t73 -7h294v351h130v-453z" />
    <glyph glyph-name="Wcircumflex" unicode="&#x174;" horiz-adv-x="1620" 
d="M465 143l285 583h96l285 -585l306 585h138l-383 -726h-127l-268 553l-271 -553h-127l-384 726h145zM690 791h-130l186 188h105l186 -188h-130l-104 99h-9z" />
    <glyph glyph-name="wcircumflex" unicode="&#x175;" horiz-adv-x="1139" 
d="M851 0h-123l-171 309l-165 -309h-123l-259 453h139l183 -337l174 337h104l182 -337l175 337h132zM449 531h-130l186 188h105l186 -188h-130l-104 99h-9z" />
    <glyph glyph-name="Ycircumflex" unicode="&#x176;" horiz-adv-x="1143" 
d="M626 0h-140v255l-481 471h169l387 -381l385 381h162l-482 -474v-252zM452 791h-130l186 188h105l186 -188h-130l-104 99h-9z" />
    <glyph glyph-name="ycircumflex" unicode="&#x177;" 
d="M642 0h-323q-72 0 -119 14t-77 43q-26 25 -38.5 60.5t-12.5 86.5v249h130v-234q0 -61 26 -87q17 -16 47 -23t73 -7h294v351h130v-464q0 -114 -64 -171q-19 -17 -41 -28.5t-49.5 -19t-61 -11t-75.5 -3.5h-308v102h300q53 0 84.5 6t52.5 27q32 32 32 92v17zM317 531h-130
l186 188h105l186 -188h-130l-104 99h-9z" />
    <glyph glyph-name="Ydieresis" unicode="&#x178;" horiz-adv-x="1143" 
d="M626 0h-140v255l-481 471h169l387 -381l385 381h162l-482 -474v-252zM419 949q33 0 56 -17t23 -55v-4q0 -38 -23 -55t-56 -17h-11q-35 0 -57 17t-22 55v4q0 38 22 55t57 17h11zM712 949q33 0 56 -17t23 -55v-4q0 -38 -23 -55t-56 -17h-11q-35 0 -57 17t-22 55v4
q0 38 22 55t57 17h11z" />
    <glyph glyph-name="Zacute" unicode="&#x179;" horiz-adv-x="1129" 
d="M74 726h934v-95l-724 -526h732v-105h-942v95l724 526h-724v105zM595 990h180l-191 -185h-125z" />
    <glyph glyph-name="zacute" unicode="&#x17a;" horiz-adv-x="868" 
d="M768 0h-686v84l457 273h-451v96h673v-82l-463 -275h470v-96zM471 730h180l-191 -185h-125z" />
    <glyph glyph-name="Zdotaccent" unicode="&#x17b;" horiz-adv-x="1129" 
d="M74 726h934v-95l-724 -526h732v-105h-942v95l724 526h-724v105zM551 978q35 0 59.5 -18t24.5 -58v-4q0 -41 -24.5 -58.5t-59.5 -17.5h-11q-37 0 -60.5 17.5t-23.5 58.5v4q0 40 23.5 58t60.5 18h11z" />
    <glyph glyph-name="zdotaccent" unicode="&#x17c;" horiz-adv-x="868" 
d="M768 0h-686v84l457 273h-451v96h673v-82l-463 -275h470v-96zM436 713q33 0 56 -17t23 -55v-4q0 -38 -23 -55t-56 -17h-11q-35 0 -57 17t-22 55v4q0 38 22 55t57 17h11z" />
    <glyph glyph-name="Zcaron" unicode="&#x17d;" horiz-adv-x="1129" 
d="M74 726h934v-95l-724 -526h732v-105h-942v95l724 526h-724v105zM447 987.032h-130l186 -187.988h105l186 187.988h-130l-104 -98.9941h-9z" />
    <glyph glyph-name="zcaron" unicode="&#x17e;" horiz-adv-x="868" 
d="M768 0h-686v84l457 273h-451v96h673v-82l-463 -275h470v-96zM325 727.032h-130l186 -187.988h105l186 187.988h-130l-104 -98.9941h-9z" />
    <glyph glyph-name="longs" unicode="&#x17f;" horiz-adv-x="416" 
d="M576 726v-102h-221q-43 0 -73 -7t-47 -23q-26 -26 -26 -87v-507h-130v522q0 51 12.5 86.5t38.5 60.5q30 29 77 43t119 14h250z" />
    <glyph glyph-name="florin" unicode="&#x192;" horiz-adv-x="767" 
d="M399 -31q0 -58 -10.5 -98t-40.5 -68q-39 -36 -92.5 -49t-138.5 -13h-60v102h77q44 0 70.5 8.5t41.5 23.5q12 12 17.5 39t5.5 63v545q0 51 12.5 86.5t38.5 60.5q30 29 77 43t119 14h181v-102h-152q-43 0 -73 -7t-47 -23q-26 -26 -26 -87v-186h254v-98h-254v-254z" />
    <glyph glyph-name="Acaron" unicode="&#x1cd;" horiz-adv-x="1183" 
d="M882 140h-613l-93 -140h-156l493 726h124l496 -726h-157zM340 246h471l-236 351zM461 987.032h-130l186 -187.988h105l186 187.988h-130l-104 -98.9941h-9z" />
    <glyph glyph-name="acaron" unicode="&#x1ce;" horiz-adv-x="905" 
d="M666 102v249h-313q-53 0 -84.5 -5.5t-52.5 -26.5q-16 -16 -23 -40.5t-7 -51.5t7 -51.5t23 -40.5q21 -21 52.5 -27t84.5 -6h313zM345 0q-79 0 -133 15.5t-92 49.5q-33 29 -49.5 71t-16.5 91t16.5 91t49.5 71q38 34 92 49t133 15h451v-453h-451zM344 727.032h-130
l186 -187.988h105l186 187.988h-130l-104 -98.9941h-9z" />
    <glyph glyph-name="Aringacute" unicode="&#x1fa;" horiz-adv-x="1183" 
d="M637 1193h180l-191 -185h-125zM882 140h-613l-93 -140h-156l492 725q-39 8 -65.5 32.5t-26.5 72.5q0 27 10.5 47.5t28 34t41.5 20t51 6.5h50q25 0 49 -6t42 -19t29 -33.5t11 -49.5q0 -46 -26.5 -71.5t-68.5 -33.5l496 -725h-157zM340 246h471l-236 351zM582 782
q30 0 51.5 8.5t21.5 39.5q0 29 -21.5 38.5t-51.5 9.5h-12q-30 0 -51.5 -8.5t-21.5 -39.5q0 -29 21.5 -38.5t51.5 -9.5h12z" />
    <glyph glyph-name="aringacute" unicode="&#x1fb;" horiz-adv-x="905" 
d="M666 102v249h-313q-53 0 -84.5 -5.5t-52.5 -26.5q-16 -16 -23 -40.5t-7 -51.5t7 -51.5t23 -40.5q21 -21 52.5 -27t84.5 -6h313zM345 0q-79 0 -133 15.5t-92 49.5q-33 29 -49.5 71t-16.5 91t16.5 91t49.5 71q38 34 92 49t133 15h451v-453h-451zM515 970h180l-191 -185
h-125zM467 571q30 0 51.5 8.5t21.5 39.5q0 29 -21.5 38.5t-51.5 9.5h-12q-30 0 -51.5 -8.5t-21.5 -39.5q0 -29 21.5 -38.5t51.5 -9.5h12zM436 511q-26 0 -50 6t-42 19t-28.5 33.5t-10.5 49.5q0 27 10.5 47.5t28 34t41.5 20t51 6.5h50q25 0 49 -6t42 -19t29 -33.5t11 -49.5
q0 -28 -10.5 -48t-28 -33.5t-41.5 -20t-51 -6.5h-50z" />
    <glyph glyph-name="AEacute" unicode="&#x1fc;" horiz-adv-x="1644" 
d="M1554 0h-838v140h-421l-120 -140h-155l612 726h918v-105h-695v-199h473v-103h-473v-214h699v-105zM716 246v379h-18l-310 -379h328zM1073 990h180l-191 -185h-125z" />
    <glyph glyph-name="aeacute" unicode="&#x1fd;" horiz-adv-x="1424" 
d="M461 100q79 0 117 18t47 64v3h-365q-24 0 -39 -1t-24 -5q-19 -9 -19 -32q0 -26 35 -38q20 -7 51.5 -8t75.5 -1h121zM687 71q-23 -32 -80 -51.5t-148 -19.5h-133q-59 0 -110 6.5t-89 23t-59.5 44.5t-21.5 72q0 42 18.5 69.5t60.5 41.5q27 9 64.5 12.5t87.5 3.5h348
q-3 17 -9.5 27t-17.5 21q-21 21 -53 26.5t-85 5.5h-365v100h375q87 0 141 -16t86 -55q34 36 88 53.5t138 17.5h113q79 0 138 -16.5t97 -51.5q32 -30 48.5 -73.5t16.5 -97.5v-34h-579q5 -38 29 -56q18 -14 49.5 -19t86.5 -5h375v-100h-385q-91 0 -147.5 19t-77.5 52zM921 353
q-41 0 -67 -3.5t-44 -11.5q-44 -20 -51 -70h445q-5 25 -16 41t-30 26t-47.5 14t-68.5 4h-121zM767 730h180l-191 -185h-125z" />
    <glyph glyph-name="Oslashacute" unicode="&#x1fe;" horiz-adv-x="1273" 
d="M66 363q0 88 25 156t73 114q31 30 69.5 50t89.5 32.5t116.5 17.5t150.5 5h64q75 0 135 -4t108 -13.5t85.5 -25t67.5 -37.5l147 87l47 -67l-134 -80q68 -89 68 -235q0 -88 -25 -156t-73 -114q-31 -30 -69.5 -50t-89.5 -32.5t-116.5 -17.5t-150.5 -5h-64q-72 0 -130.5 3.5
t-105 12t-83.5 22.5t-67 34l-135 -80l-51 67l122 72q-74 91 -74 244zM213 363q0 -51 8.5 -96t34.5 -80l674 400q-45 23 -113 30t-170 7h-50q-65 0 -116.5 -3t-91.5 -10.5t-69 -21t-50 -34.5q-34 -35 -45.5 -85t-11.5 -107zM1031 363q0 48 -8 90.5t-29 75.5l-668 -396
q45 -19 110.5 -25t160.5 -6h50q65 0 116.5 3t91.5 10.5t69 21t50 34.5q34 35 45.5 85t11.5 107zM694 990h180l-191 -185h-125z" />
    <glyph glyph-name="oslashacute" unicode="&#x1ff;" horiz-adv-x="897" 
d="M352 0q-136 0 -208 47l-134 -65l-31 55l115 55q-40 52 -40 134q0 101 65 160q74 67 233 67h163q141 0 215 -53l132 64l30 -53l-116 -57q37 -50 37 -128q0 -53 -16.5 -92t-48.5 -68q-73 -66 -233 -66h-163zM361 351q-51 0 -87 -7.5t-57 -27.5q-17 -16 -24 -35.5t-7 -54.5
q0 -29 4.5 -47t15.5 -32l399 193q-20 6 -44.5 8.5t-54.5 2.5h-145zM681 226q0 26 -4 43t-13 31l-392 -191q35 -7 89 -7h145q51 0 87 7t57 27q17 16 24 35.5t7 54.5zM492 730h180l-191 -185h-125z" />
    <glyph glyph-name="Scommaaccent" unicode="&#x218;" horiz-adv-x="1113" 
d="M116 0v104h533q52 0 93.5 2.5t69.5 12t43 28.5t15 51q0 27 -11 43.5t-32 26.5t-52 15.5t-71 9.5l-353 36q-63 6 -113.5 19.5t-86.5 37t-55 58.5t-19 85q0 55 23.5 93t66.5 61t103 33t133 10h560v-104h-549q-57 0 -95 -4t-61 -14.5t-33 -28t-10 -43.5q0 -27 12 -43.5
t34 -26.5t52.5 -15t67.5 -9l356 -36q67 -7 118 -20.5t85 -37t51 -58.5t17 -85q0 -111 -85 -156t-260 -45h-547zM489 -89h134l-75 -247h-95z" />
    <glyph glyph-name="scommaaccent" unicode="&#x219;" horiz-adv-x="847" 
d="M76 0v102h521q31 0 44.5 8t13.5 29q0 37 -58 37h-395q-66 0 -106 39t-40 105q0 33 12.5 58t34 41.5t50 25t61.5 8.5h510v-102h-490q-32 0 -48 -7t-16 -29q0 -20 13.5 -28.5t44.5 -8.5h383q70 0 114 -37t44 -103t-41.5 -102t-107.5 -36h-544zM358 -89h134l-75 -247h-95z
" />
    <glyph glyph-name="uni021A" unicode="&#x21a;" horiz-adv-x="1037" 
d="M573 0h-139v621h-390v105h919v-105h-390v-621zM451 -89h134l-75 -247h-95z" />
    <glyph glyph-name="uni021B" unicode="&#x21b;" horiz-adv-x="647" 
d="M319 0q-72 0 -119 14t-77 43q-26 25 -38.5 60.5t-12.5 86.5v475h130v-226h309v-98h-309v-136q0 -61 26 -87q17 -16 47 -23t73 -7h215v-102h-244zM277 -89h134l-75 -247h-95z" />
    <glyph glyph-name="circumflex" unicode="&#x2c6;" horiz-adv-x="680" 
d="M216 531h-130l186 188h105l186 -188h-130l-104 99h-9z" />
    <glyph glyph-name="caron" unicode="&#x2c7;" horiz-adv-x="680" 
d="M216 727.032h-130l186 -187.988h105l186 187.988h-130l-104 -98.9941h-9z" />
    <glyph glyph-name="breve" unicode="&#x2d8;" horiz-adv-x="680" 
d="M316 553q-95 0 -154.5 42t-70.5 129h100q5 -41 37.5 -65t92.5 -24h7q60 0 92.5 24t37.5 65h100q-11 -87 -71 -129t-154 -42h-17z" />
    <glyph glyph-name="dotaccent" unicode="&#x2d9;" horiz-adv-x="680" 
d="M330 713q33 0 56 -17t23 -55v-4q0 -38 -23 -55t-56 -17h-11q-35 0 -57 17t-22 55v4q0 38 22 55t57 17h11z" />
    <glyph glyph-name="ring" unicode="&#x2da;" horiz-adv-x="680" 
d="M331 596q30 0 51.5 8.5t21.5 39.5q0 29 -21.5 38.5t-51.5 9.5h-12q-30 0 -51.5 -8.5t-21.5 -39.5q0 -29 21.5 -38.5t51.5 -9.5h12zM300 536q-26 0 -50 6t-42 19t-28.5 33.5t-10.5 49.5q0 27 10.5 47.5t28 34t41.5 20t51 6.5h50q25 0 49 -6t42 -19t29 -33.5t11 -49.5
q0 -28 -10.5 -48t-28 -33.5t-41.5 -20t-51 -6.5h-50z" />
    <glyph glyph-name="ogonek" unicode="&#x2db;" horiz-adv-x="680" 
d="M480 9q-168 -98 -168 -180q0 -20 14 -35.5t59 -15.5h74v-87h-74q-182 0 -182 117q0 49 36 103.5t118 97.5h123v0z" />
    <glyph glyph-name="tilde" unicode="&#x2dc;" horiz-adv-x="680" 
d="M602 652q-26 -48 -68.5 -75t-95.5 -27q-31 0 -55 6t-50 17l-27 12q-42 19 -75 19q-34 0 -65 -15t-58 -41l-60 54q38 48 84 74.5t106 26.5q20 0 45 -6t50 -17l28 -13q20 -9 38.5 -17t39.5 -8q54 0 99 57z" />
    <glyph glyph-name="hungarumlaut" unicode="&#x2dd;" horiz-adv-x="680" 
d="M159 730h163l-152 -185h-118zM450 730h163l-152 -185h-118z" />
    <glyph glyph-name="commaaccent" unicode="&#x326;" horiz-adv-x="680" 
d="M275 -89h134l-75 -247h-95z" />
    <glyph glyph-name="Wgrave" unicode="&#x1e80;" horiz-adv-x="1620" 
d="M465 143l285 583h96l285 -585l306 585h138l-383 -726h-127l-268 553l-271 -553h-127l-384 726h145zM865 805h-125l-191 185h180z" />
    <glyph glyph-name="wgrave" unicode="&#x1e81;" horiz-adv-x="1139" 
d="M851 0h-123l-171 309l-165 -309h-123l-259 453h139l183 -337l174 337h104l182 -337l175 337h132zM631 545h-125l-191 185h180z" />
    <glyph glyph-name="Wacute" unicode="&#x1e82;" horiz-adv-x="1620" 
d="M465 143l285 583h96l285 -585l306 585h138l-383 -726h-127l-268 553l-271 -553h-127l-384 726h145zM855 990h180l-191 -185h-125z" />
    <glyph glyph-name="wacute" unicode="&#x1e83;" horiz-adv-x="1139" 
d="M851 0h-123l-171 309l-165 -309h-123l-259 453h139l183 -337l174 337h104l182 -337l175 337h132zM630 730h180l-191 -185h-125z" />
    <glyph glyph-name="Wdieresis" unicode="&#x1e84;" horiz-adv-x="1620" 
d="M465 143l285 583h96l285 -585l306 585h138l-383 -726h-127l-268 553l-271 -553h-127l-384 726h145zM658 949q33 0 56 -17t23 -55v-4q0 -38 -23 -55t-56 -17h-11q-35 0 -57 17t-22 55v4q0 38 22 55t57 17h11zM951 949q33 0 56 -17t23 -55v-4q0 -38 -23 -55t-56 -17h-11
q-35 0 -57 17t-22 55v4q0 38 22 55t57 17h11z" />
    <glyph glyph-name="wdieresis" unicode="&#x1e85;" horiz-adv-x="1139" 
d="M851 0h-123l-171 309l-165 -309h-123l-259 453h139l183 -337l174 337h104l182 -337l175 337h132zM415 690q33 0 56 -17t23 -55v-4q0 -38 -23 -55t-56 -17h-11q-35 0 -57 17t-22 55v4q0 38 22 55t57 17h11zM708 690q33 0 56 -17t23 -55v-4q0 -38 -23 -55t-56 -17h-11
q-35 0 -57 17t-22 55v4q0 38 22 55t57 17h11z" />
    <glyph glyph-name="Ygrave" unicode="&#x1ef2;" horiz-adv-x="1143" 
d="M626 0h-140v255l-481 471h169l387 -381l385 381h162l-482 -474v-252zM645 805h-125l-191 185h180z" />
    <glyph glyph-name="ygrave" unicode="&#x1ef3;" 
d="M642 0h-323q-72 0 -119 14t-77 43q-26 25 -38.5 60.5t-12.5 86.5v249h130v-234q0 -61 26 -87q17 -16 47 -23t73 -7h294v351h130v-464q0 -114 -64 -171q-19 -17 -41 -28.5t-49.5 -19t-61 -11t-75.5 -3.5h-308v102h300q53 0 84.5 6t52.5 27q32 32 32 92v17zM518 545h-125
l-191 185h180z" />
    <glyph glyph-name="endash" unicode="&#x2013;" horiz-adv-x="629" 
d="M80 279h439v-102h-439v102z" />
    <glyph glyph-name="emdash" unicode="&#x2014;" horiz-adv-x="1067" 
d="M80 279h877v-102h-877v102z" />
    <glyph glyph-name="quoteleft" unicode="&#x2018;" horiz-adv-x="370" 
d="M174.01 428.009q-37.9971 0 -63.4961 20.499q-25.498 20.499 -25.498 61.4961v5q0 20.998 7 43.9971q6.99902 22.999 27.998 62.9961l77.9951 150.991h79.9951l-78.9951 -178.989q28.998 -4 49.4971 -24.499q20.498 -20.498 20.498 -55.4961v-6
q0 -21.998 -7.49902 -36.998q-7.5 -14.999 -19.499 -24.498t-27.498 -13.999t-32.498 -4.5h-8z" />
    <glyph glyph-name="quoteright" unicode="&#x2019;" horiz-adv-x="370" 
d="M166 773q38 0 63.5 -20.5t25.5 -61.5v-5q0 -21 -7 -44t-28 -63l-78 -151h-80l79 179q-29 4 -49.5 24.5t-20.5 55.5v6q0 22 7.5 37t19.5 24.5t27.5 14t32.5 4.5h8z" />
    <glyph glyph-name="quotesinglbase" unicode="&#x201a;" horiz-adv-x="370" 
d="M166 147q38 0 63.5 -20.5t25.5 -61.5v-5q0 -21 -7 -44t-28 -63l-78 -151h-80l79 179q-29 4 -49.5 24.5t-20.5 55.5v6q0 22 7.5 37t19.5 24.5t27.5 14t32.5 4.5h8z" />
    <glyph glyph-name="quotedblleft" unicode="&#x201c;" horiz-adv-x="639" 
d="M174.01 428.009q-37.9971 0 -63.4961 20.499q-25.498 20.499 -25.498 61.4961v5q0 20.998 7 43.9971q6.99902 22.999 27.998 62.9961l77.9951 150.991h79.9951l-78.9951 -178.989q28.998 -4 49.4971 -24.499q20.498 -20.498 20.498 -55.4961v-6
q0 -21.998 -7.49902 -36.998q-7.5 -14.999 -19.499 -24.498t-27.498 -13.999t-32.498 -4.5h-8zM443.01 428.009q-37.9971 0 -63.4961 20.499q-25.498 20.499 -25.498 61.4961v5q0 20.998 7 43.9971q6.99902 22.999 27.998 62.9961l77.9951 150.991h79.9951
l-78.9951 -178.989q28.998 -4 49.4971 -24.499q20.498 -20.498 20.498 -55.4961v-6q0 -21.998 -7.49902 -36.998q-7.5 -14.999 -19.499 -24.498t-27.498 -13.999t-32.498 -4.5h-8z" />
    <glyph glyph-name="quotedblright" unicode="&#x201d;" horiz-adv-x="639" 
d="M166 773q38 0 63.5 -20.5t25.5 -61.5v-5q0 -21 -7 -44t-28 -63l-78 -151h-80l79 179q-29 4 -49.5 24.5t-20.5 55.5v6q0 22 7.5 37t19.5 24.5t27.5 14t32.5 4.5h8zM435 773q38 0 63.5 -20.5t25.5 -61.5v-5q0 -21 -7 -44t-28 -63l-78 -151h-80l79 179q-29 4 -49.5 24.5
t-20.5 55.5v6q0 22 7.5 37t19.5 24.5t27.5 14t32.5 4.5h8z" />
    <glyph glyph-name="quotedblbase" unicode="&#x201e;" horiz-adv-x="639" 
d="M166 147q38 0 63.5 -20.5t25.5 -61.5v-5q0 -21 -7 -44t-28 -63l-78 -151h-80l79 179q-29 4 -49.5 24.5t-20.5 55.5v6q0 22 7.5 37t19.5 24.5t27.5 14t32.5 4.5h8zM435 147q38 0 63.5 -20.5t25.5 -61.5v-5q0 -21 -7 -44t-28 -63l-78 -151h-80l79 179q-29 4 -49.5 24.5
t-20.5 55.5v6q0 22 7.5 37t19.5 24.5t27.5 14t32.5 4.5h8z" />
    <glyph glyph-name="dagger" unicode="&#x2020;" horiz-adv-x="857" 
d="M347 -317l13 659l-290 -9v114l289 -9l-12 344h133l-12 -344l289 9v-114l-290 9l13 -659h-133z" />
    <glyph glyph-name="daggerdbl" unicode="&#x2021;" horiz-adv-x="857" 
d="M347 -317l9 281l-286 -9v114l289 -9v331l-289 -9v114l288 -9l-11 295h133l-11 -295l288 9v-114l-289 9v-331l289 9v-114l-286 9l9 -281h-133z" />
    <glyph glyph-name="bullet" unicode="&#x2022;" horiz-adv-x="435" 
d="M80 305q0 25 9.5 47.5t26 39t39 26.5t47.5 10t47.5 -10t39 -26.5t26.5 -39t10 -47.5t-10 -47.5t-26.5 -39t-39 -26t-47.5 -9.5t-47.5 9.5t-39 26t-26 39t-9.5 47.5z" />
    <glyph glyph-name="ellipsis" unicode="&#x2026;" horiz-adv-x="855" 
d="M143 147q32 0 54 -18t22 -56v-5q0 -39 -22 -56.5t-54 -17.5h-11q-33 0 -54.5 17.5t-21.5 56.5v5q0 38 21.5 56t54.5 18h11zM418 147q32 0 54 -18t22 -56v-5q0 -39 -22 -56.5t-54 -17.5h-11q-33 0 -54.5 17.5t-21.5 56.5v5q0 38 21.5 56t54.5 18h11zM693 147q32 0 54 -18
t22 -56v-5q0 -39 -22 -56.5t-54 -17.5h-11q-33 0 -54.5 17.5t-21.5 56.5v5q0 38 21.5 56t54.5 18h11z" />
    <glyph glyph-name="perthousand" unicode="&#x2030;" horiz-adv-x="1964" 
d="M319 453q29 0 55.5 4.5t46.5 16t32 30.5t12 49q0 60 -39.5 81t-106.5 21h-16q-70 0 -109.5 -21t-39.5 -81q0 -30 10 -49t29 -30.5t46.5 -16t61.5 -4.5h18zM334 738q49 0 93 -9.5t76.5 -31t51.5 -57t19 -87.5q0 -51 -19 -86t-51.5 -56.5t-76.5 -31t-94 -9.5h-46
q-54 0 -98.5 9.5t-76.5 31t-49.5 56.5t-17.5 86q0 52 17.5 87.5t49.5 57t76.5 31t98.5 9.5h47zM1033 71q29 0 55.5 4.5t46.5 16t32 30.5t12 49q0 60 -39.5 81t-106.5 21h-16q-70 0 -109.5 -21t-39.5 -81q0 -30 10 -49t29 -30.5t46.5 -16t61.5 -4.5h18zM1048 356
q49 0 93 -9.5t76.5 -31t51.5 -57t19 -87.5q0 -51 -19 -86t-51.5 -56.5t-76.5 -31t-94 -9.5h-46q-54 0 -98.5 9.5t-76.5 31t-49.5 56.5t-17.5 86q0 52 17.5 87.5t49.5 57t76.5 31t98.5 9.5h47zM1634 71q29 0 55.5 4.5t46.5 16t32 30.5t12 49q0 60 -39.5 81t-106.5 21h-16
q-70 0 -109.5 -21t-39.5 -81q0 -30 10 -49t29 -30.5t46.5 -16t61.5 -4.5h18zM1649 356q49 0 93 -9.5t76.5 -31t51.5 -57t19 -87.5q0 -51 -19 -86t-51.5 -56.5t-76.5 -31t-94 -9.5h-46q-54 0 -98.5 9.5t-76.5 31t-49.5 56.5t-17.5 86q0 52 17.5 87.5t49.5 57t76.5 31
t98.5 9.5h47zM371 -12h-136l721 751h136z" />
    <glyph glyph-name="guilsinglleft" unicode="&#x2039;" horiz-adv-x="596" 
d="M476 121l-53 -84l-368 214v77l358 207l60 -84l-274 -160z" />
    <glyph glyph-name="guilsinglright" unicode="&#x203a;" horiz-adv-x="596" 
d="M367 291l-274 160l60 84l358 -207v-77l-368 -214l-53 84z" />
    <glyph glyph-name="fraction" unicode="&#x2044;" horiz-adv-x="350" 
d="M-140 -12h-136l721 751h136z" />
    <glyph glyph-name="Euro" unicode="&#x20ac;" horiz-adv-x="1108" 
d="M1012 106v-106h-305q-83 0 -147 4t-114 15t-88 29t-69 47q-58 52 -82 136h-157v92h141q-1 10 -1 19.5v20.5v21t1 21h-141v92h157q24 80 82 134q31 28 69 46.5t88 29.5t114 15t147 4h305v-106h-294q-65 0 -116.5 -2.5t-90.5 -9.5t-68 -20t-49 -34q-12 -12 -20.5 -26.5
t-15.5 -30.5h391v-92h-411q-1 -11 -1 -21v-21v-20.5t1 -19.5h412v-92h-393q14 -36 37 -59q20 -21 49 -34t68 -20t90.5 -9.5t116.5 -2.5h294z" />
    <glyph glyph-name="litre" unicode="&#x2113;" horiz-adv-x="322" 
d="M211 0h-130v726h130v-726z" />
    <glyph glyph-name="numero" unicode="&#x2116;" horiz-adv-x="1781" 
d="M1220 253h469v-76h-469v76zM235 726l735 -575v575h132v-726h-125l-735 575v-575h-132v726h125zM1486 399q26 0 47.5 3t36.5 12t23 24.5t8 40.5q0 48 -31.5 63.5t-83.5 15.5h-58q-25 0 -46.5 -2.5t-37 -11t-24 -24t-8.5 -41.5q0 -24 8.5 -39.5t24 -24.5t37 -12.5
t46.5 -3.5h58zM1406 334q-39 0 -74.5 7.5t-62 24.5t-42 44.5t-15.5 68.5q0 39 15.5 66.5t42 44.5t62 25t74.5 8h100q39 0 74.5 -7.5t62 -24t42 -44.5t15.5 -68q0 -39 -15.5 -67t-42 -45t-62 -25t-74.5 -8h-100z" />
    <glyph glyph-name="trademark" unicode="&#x2122;" horiz-adv-x="1386" 
d="M40 726h526v-93h-208v-275h-110v275h-208v93zM757 583v-225h-101v368h97l237 -252l233 252h93v-368h-100v227l-196 -218h-60z" />
    <glyph glyph-name="estimated" unicode="&#x212e;" horiz-adv-x="864" 
d="M178 137q0 -6 2.5 -11.5t6.5 -10.5q44 -45 103.5 -72t128.5 -27q73 0 135.5 30.5t106.5 81.5h55q-52 -60 -129.5 -96t-168.5 -36q-78 0 -147 26.5t-120 72.5t-81 107.5t-30 132.5q0 70 30 132t81 108t120 72.5t147 26.5t146.5 -26.5t119.5 -72.5t80.5 -108t29.5 -132v-8
h-611q-5 0 -5 -5v-185zM178 350q0 -5 5 -5h468q5 0 5 5v187q0 12 -10 22q-44 44 -102.5 69.5t-124.5 25.5q-69 0 -127.5 -26.5t-103.5 -71.5q-10 -10 -10 -24v-182z" />
    <glyph glyph-name="partialdiff" unicode="&#x2202;" horiz-adv-x="1118" 
d="M875 445q-12 91 -69 133t-175 42h-497v106h501q193 0 287 -87.5t94 -275.5q0 -95 -27 -165.5t-85.5 -117t-151 -69.5t-223.5 -23q-125 0 -212.5 15t-142 45.5t-79.5 78t-25 113.5q0 77 34.5 121.5t95.5 63.5q45 14 100.5 17t120.5 3h454zM525 94q102 0 170 15.5t109 46.5
t58 78t17 110h-409q-51 0 -89.5 -0.5t-67.5 -5.5q-56 -8 -77 -33t-21 -69q0 -33 11.5 -59.5t45 -44.5t94 -28t159.5 -10z" />
    <glyph glyph-name="product" unicode="&#x220f;" horiz-adv-x="1291" 
d="M40 726h1181v-105h-191v-951h-139v951h-521v-951h-139v951h-191v105z" />
    <glyph glyph-name="summation" unicode="&#x2211;" horiz-adv-x="981" 
d="M907 -330h-854v97l437 445v5l-437 423v86h851v-105h-673l398 -382v-45l-417 -418h695v-106z" />
    <glyph glyph-name="minus" unicode="&#x2212;" horiz-adv-x="830" 
d="M61 233v104h679v-104h-679z" />
    <glyph glyph-name="radical" unicode="&#x221a;" horiz-adv-x="926" 
d="M50 296v104h206l156 -286l318 628h134l-381 -742h-136l-165 296h-132z" />
    <glyph glyph-name="infinity" unicode="&#x221e;" horiz-adv-x="1265" 
d="M396 115h-44q-57 0 -106.5 13.5t-86.5 41t-58 69t-21 97.5q0 58 22.5 100t60 69t87 40t102.5 13h51q68 0 130 -22t103 -54q27 33 82 54.5t127 21.5h40q57 0 106.5 -14t85.5 -42t57 -69.5t21 -96.5q0 -59 -22.5 -101t-60 -68.5t-86.5 -39t-102 -12.5h-51
q-60 0 -121.5 20.5t-103.5 59.5q-32 -37 -81 -58.5t-131 -21.5zM391 461h-17q-73 0 -117.5 -30t-44.5 -95q0 -35 13 -58.5t35.5 -38t51.5 -21t62 -6.5h17q38 0 65 8t46.5 23t32 37t22.5 51l23 69q-30 23 -78.5 42t-110.5 19zM846 212h16q71 0 115.5 28t44.5 95q0 34 -13 58
t-35 39t-51.5 22t-62.5 7h-16q-59 0 -98.5 -28.5t-61.5 -93.5l-22 -66q30 -24 78.5 -42.5t105.5 -18.5z" />
    <glyph glyph-name="integral" unicode="&#x222b;" horiz-adv-x="608" 
d="M391 122q21 -61 31.5 -106t10.5 -86q0 -47 -17 -82t-48.5 -59t-75 -36t-95.5 -12h-117v105h98q26 0 51 2.5t44.5 11t31.5 25.5t12 46q0 32 -7 58.5t-21 65.5l-108 307q-15 42 -26 91t-11 90q0 88 59.5 135.5t170.5 47.5h124v-105h-113q-24 0 -46.5 -4t-39.5 -13.5
t-27 -26t-10 -41.5q0 -29 7.5 -59t19.5 -65z" />
    <glyph glyph-name="approxequal" unicode="&#x2248;" horiz-adv-x="830" 
d="M762 470q-16 -27 -38.5 -48.5t-48.5 -36.5t-55 -23t-58 -8q-47 0 -82 10.5t-70 22.5l-37 13q-28 10 -52 17t-55 7q-43 0 -80 -22.5t-75 -67.5l-72 69q101 128 234 128q35 0 68 -8.5t72 -23.5l40 -15q30 -11 55 -19t54 -8q32 0 65.5 18t59.5 56zM762 190
q-16 -27 -38.5 -48.5t-48.5 -36.5t-55 -23t-58 -8q-47 0 -82 10.5t-70 22.5l-37 13q-28 10 -52 17t-55 7q-43 0 -80 -22.5t-75 -67.5l-72 69q101 128 234 128q35 0 68 -8.5t72 -23.5l40 -15q30 -11 55 -19t54 -8q32 0 65.5 18t59.5 56z" />
    <glyph glyph-name="notequal" unicode="&#x2260;" horiz-adv-x="830" 
d="M343 98l-83 -148h-89l83 148h-193v104h251l100 177h-351v104h409l79 139h89l-79 -139h181v-104h-239l-100 -177h339v-104h-397z" />
    <glyph glyph-name="lessequal" unicode="&#x2264;" horiz-adv-x="830" 
d="M705 300l-31 -94l-586 183v114l582 184l32 -93l-490 -148zM61 0v104h679v-104h-679z" />
    <glyph glyph-name="greaterequal" unicode="&#x2265;" horiz-adv-x="830" 
d="M581 446l-490 148l32 93l582 -184v-114l-586 -183l-31 94zM61 0v104h679v-104h-679z" />
    <glyph glyph-name="lozenge" unicode="&#x25ca;" horiz-adv-x="942" 
d="M743 362l-275 270h-10l-290 -270l290 -270h10zM514 0h-105l-369 344v36l369 345h105l358 -345q-1 -1 -0.5 -6.5t0.5 -12.5v-17z" />
    <glyph glyph-name="apple" unicode="&#xf8ff;" horiz-adv-x="627" 
d="M497 538v-66h-198v-66h198v-199h-266v64h201v68h-201v199h266zM497 670v-66h-330v-537h73v-67h-140v670h397z" />
    <glyph glyph-name="grave.cap" horiz-adv-x="680" 
d="M476 805h-125l-191 185h180z" />
    <glyph glyph-name="acute.cap" horiz-adv-x="680" 
d="M339 990h180l-191 -185h-125z" />
    <glyph glyph-name="dieresis.cap" horiz-adv-x="680" 
d="M183 949q33 0 56 -17t23 -55v-4q0 -38 -23 -55t-56 -17h-11q-35 0 -57 17t-22 55v4q0 38 22 55t57 17h11zM476 949q33 0 56 -17t23 -55v-4q0 -38 -23 -55t-56 -17h-11q-35 0 -57 17t-22 55v4q0 38 22 55t57 17h11z" />
    <glyph glyph-name="circumflex.cap" horiz-adv-x="680" 
d="M216 791h-130l186 188h105l186 -188h-130l-104 99h-9z" />
    <glyph glyph-name="tilde.cap" horiz-adv-x="680" 
d="M602 912q-26 -48 -68.5 -75t-95.5 -27q-31 0 -55 6t-50 17l-27 12q-42 19 -75 19q-34 0 -65 -15t-58 -41l-60 54q38 48 84 74.5t106 26.5q20 0 45 -6t50 -17l28 -13q20 -9 38.5 -17t39.5 -8q54 0 99 57z" />
    <glyph glyph-name="macron.cap" horiz-adv-x="680" 
d="M68 932h514v-90h-514v90z" />
    <glyph glyph-name="breve.cap" horiz-adv-x="680" 
d="M316 813q-95 0 -154.5 42t-70.5 129h100q5 -41 37.5 -65t92.5 -24h7q60 0 92.5 24t37.5 65h100q-11 -87 -71 -129t-154 -42h-17z" />
    <glyph glyph-name="dotaccent.cap" horiz-adv-x="680" 
d="M330 978q35 0 59.5 -18t24.5 -58v-4q0 -41 -24.5 -58.5t-59.5 -17.5h-11q-37 0 -60.5 17.5t-23.5 58.5v4q0 40 23.5 58t60.5 18h11z" />
    <glyph glyph-name="ring.cap" horiz-adv-x="680" 
d="M331 856q30 0 51.5 8.5t21.5 39.5q0 29 -21.5 38.5t-51.5 9.5h-12q-30 0 -51.5 -8.5t-21.5 -39.5q0 -29 21.5 -38.5t51.5 -9.5h12zM300 796q-26 0 -50 6t-42 19t-28.5 33.5t-10.5 49.5q0 27 10.5 47.5t28 34t41.5 20t51 6.5h50q25 0 49 -6t42 -19t29 -33.5t11 -49.5
q0 -28 -10.5 -48t-28 -33.5t-41.5 -20t-51 -6.5h-50z" />
    <glyph glyph-name="hungarumlaut.cap" horiz-adv-x="680" 
d="M159 990h163l-152 -185h-118zM450 990h163l-152 -185h-118z" />
    <glyph glyph-name="caron.cap" horiz-adv-x="680" 
d="M216 987.032h-130l186 -187.988h105l186 187.988h-130l-104 -98.9941h-9z" />
    </font>
</defs>
</svg>
